<svg width="720" height="720" viewBox="0 0 720 720" fill="none" xmlns="http://www.w3.org/2000/svg">
<rect width="720" height="720" fill="white"/>
<g clip-path="url(#clip0_744_2)">
<path d="M277.944 234.718C273.793 234.718 269.733 233.361 265.769 230.646C261.804 227.931 259.208 224.127 257.985 219.23L264.692 216.515C265.489 219.657 267.127 222.303 269.601 224.459C272.076 226.615 274.857 227.691 277.944 227.691C281.139 227.691 283.864 226.855 286.128 225.178C288.389 223.501 289.52 221.226 289.52 218.353C289.52 215.158 288.389 212.697 286.128 210.967C283.864 209.238 280.285 207.629 275.389 206.137C270.332 204.539 266.5 202.478 263.893 199.95C261.285 197.422 259.98 194.19 259.98 190.249C259.98 186.151 261.604 182.585 264.852 179.551C268.096 176.518 272.328 175.001 277.544 175.001C282.387 175.001 286.327 176.213 289.361 178.634C292.395 181.057 294.363 183.703 295.268 186.578L288.563 189.371C288.083 187.563 286.899 185.886 285.009 184.342C283.12 182.799 280.685 182.026 277.704 182.026C274.883 182.026 272.475 182.811 270.479 184.382C268.483 185.953 267.485 187.909 267.485 190.249C267.485 192.379 268.404 194.175 270.24 195.638C272.076 197.103 274.777 198.419 278.344 199.59C281.164 200.495 283.519 201.374 285.409 202.225C287.297 203.078 289.213 204.209 291.156 205.618C293.099 207.029 294.563 208.786 295.548 210.887C296.532 212.99 297.025 215.425 297.025 218.191C297.025 220.961 296.452 223.435 295.308 225.617C294.163 227.801 292.645 229.529 290.757 230.806C288.867 232.083 286.832 233.055 284.649 233.721C282.468 234.385 280.232 234.718 277.944 234.718Z" fill="#4285F4"/>
<path d="M321.215 234.08C317.116 234.08 313.99 232.989 311.835 230.807C309.679 228.624 308.602 225.537 308.602 221.545V201.028H301.736V194.321H308.602V182.345H315.946V194.321H325.526V201.028H315.946V220.987C315.946 225.245 317.702 227.373 321.215 227.373C322.544 227.373 323.663 227.161 324.568 226.735L327.123 233.041C325.526 233.732 323.556 234.08 321.215 234.08Z" fill="#4285F4"/>
<path d="M368.478 233.441H361.451V228.013H361.133C360.014 229.875 358.311 231.459 356.023 232.762C353.734 234.066 351.313 234.718 348.758 234.718C343.861 234.718 340.149 233.229 337.621 230.246C335.093 227.267 333.829 223.275 333.829 218.271V194.321H341.173V217.075C341.173 224.366 344.394 228.013 350.834 228.013C353.867 228.013 356.342 226.789 358.258 224.339C360.174 221.893 361.133 219.071 361.133 215.877V194.321H368.478V233.441Z" fill="#4285F4"/>
<path d="M396.181 228.012C399.64 228.012 402.58 226.735 405.003 224.18C407.424 221.626 408.636 218.192 408.636 213.88C408.636 209.57 407.424 206.138 405.003 203.583C402.58 201.028 399.64 199.751 396.181 199.751C392.773 199.751 389.847 201.04 387.399 203.622C384.949 206.204 383.727 209.623 383.727 213.88C383.727 218.14 384.949 221.559 387.399 224.14C389.847 226.722 392.773 228.012 396.181 228.012ZM394.984 234.718C389.927 234.718 385.563 232.722 381.889 228.73C378.217 224.739 376.381 219.788 376.381 213.88C376.381 207.974 378.217 203.023 381.889 199.032C385.563 195.04 389.927 193.043 394.984 193.043C397.964 193.043 400.639 193.683 403.007 194.96C405.375 196.238 407.145 197.834 408.316 199.751H408.636L408.316 194.32V176.278H415.66V233.44H408.636V228.012H408.316C407.145 229.928 405.375 231.524 403.007 232.802C400.639 234.08 397.964 234.718 394.984 234.718Z" fill="#4285F4"/>
<path d="M436.657 250.685H429.073L438.174 230.965L422.046 194.321H430.03L441.685 222.424H441.846L453.183 194.321H461.166L436.657 250.685Z" fill="#4285F4"/>
<path d="M257.69 363.268H217.054V306.348C217.054 295.127 226.152 286.031 237.373 286.031C248.594 286.031 257.69 295.127 257.69 306.348V363.268Z" fill="#9FC1F9"/>
<path d="M218.345 362.958H179C179 384.542 196.761 402.303 218.345 402.303C239.924 402.303 257.681 384.554 257.691 362.976L218.345 362.958Z" fill="#4285F4"/>
<path d="M281.116 388.609H389.608L344.914 293.741C340.994 285.422 329.151 285.449 325.27 293.785L281.116 388.609Z" fill="#9FC1F9"/>
<path d="M320.316 399.898V341.32H382.672L320.316 399.898Z" fill="#4285F4"/>
<path d="M469.457 318.429V387.971H526.806V318.429C526.806 302.592 513.969 289.755 498.132 289.755C482.296 289.755 469.457 302.592 469.457 318.429Z" fill="#9FC1F9" stroke="white"/>
<path d="M411.48 318.429V387.971H468.83V318.429C468.83 302.592 455.991 289.755 440.155 289.755C424.319 289.755 411.48 302.592 411.48 318.429Z" fill="#9FC1F9" stroke="white"/>
<path d="M531.341 403.543C519.596 415.288 500.552 415.288 488.807 403.543C477.061 391.796 477.061 372.753 488.807 361.008C500.552 349.261 519.596 349.261 531.341 361.008C543.088 372.753 543.088 391.796 531.341 403.543Z" fill="#4285F4"/>
</g>
<path fill-rule="evenodd" clip-rule="evenodd" d="M143.132 480.461V486.016C147.715 486.016 151.404 489.747 151.404 494.289C151.404 498.869 147.715 502.599 143.132 502.599V508.154C150.796 508.154 157 501.951 157 494.289C157 486.624 150.796 480.461 143.132 480.461V480.461Z" fill="#4285F4"/>
<path fill-rule="evenodd" clip-rule="evenodd" d="M110.204 473V512.249C110.204 517.764 114.664 522.266 120.22 522.266H135.996C141.512 522.266 145.973 517.764 145.973 512.249V473H110.204Z" fill="#9FC1F9"/>
<path fill-rule="evenodd" clip-rule="evenodd" d="M120.869 503.211C119.936 503.211 119.165 503.98 119.165 504.912C119.165 505.887 119.936 506.656 120.869 506.656C121.842 506.656 122.613 505.887 122.613 504.912C122.613 503.98 121.842 503.211 120.869 503.211Z" fill="#4285F4"/>
<path fill-rule="evenodd" clip-rule="evenodd" d="M114.989 503.211C114.056 503.211 113.287 503.98 113.287 504.912C113.287 505.887 114.056 506.656 114.989 506.656C115.962 506.656 116.733 505.887 116.733 504.912C116.733 503.98 115.962 503.211 114.989 503.211Z" fill="#4285F4"/>
<path fill-rule="evenodd" clip-rule="evenodd" d="M133.157 486.423V494.37C133.157 495.058 133.157 495.748 133.157 496.518C133.238 500.006 133.321 504.021 130.886 506.493C129.305 508.115 126.832 508.885 123.303 508.885H107V510.385H123.303C127.278 510.385 130.117 509.453 131.982 507.547C134.821 504.628 134.74 500.127 134.7 496.477V494.41V486.423H133.157Z" fill="#4285F4"/>
<path fill-rule="evenodd" clip-rule="evenodd" d="M131.371 485.896V487.436H136.359V485.896H131.371Z" fill="#4285F4"/>
<path fill-rule="evenodd" clip-rule="evenodd" d="M200.967 486C198.81 486 197.034 487.732 197.034 489.931V516.393H250.219V489.931C250.219 487.732 248.487 486 246.33 486H200.967Z" fill="#9FC1F9"/>
<path fill-rule="evenodd" clip-rule="evenodd" d="M189.848 515.592C187.691 515.592 185.959 517.282 186.001 519.396C185.959 521.509 187.691 523.201 189.762 523.243L257.153 523.75C257.178 523.75 257.204 523.75 257.23 523.75C259.308 523.75 261 522.033 261 519.946C261 517.831 259.31 516.141 257.239 516.099L189.848 515.592V515.592Z" fill="#4285F4"/>
<path fill-rule="evenodd" clip-rule="evenodd" d="M228.74 495.047C227.936 495.047 227.261 495.681 227.261 496.526C227.261 497.328 227.936 498.006 228.74 498.006C229.542 498.006 230.22 497.328 230.22 496.526C230.22 495.681 229.542 495.047 228.74 495.047Z" fill="#4285F4"/>
<path fill-rule="evenodd" clip-rule="evenodd" d="M222.229 495.047C221.385 495.047 220.75 495.681 220.75 496.526C220.75 497.328 221.385 498.006 222.229 498.006C223.033 498.006 223.709 497.328 223.709 496.526C223.709 495.681 223.033 495.047 222.229 495.047Z" fill="#4285F4"/>
<path fill-rule="evenodd" clip-rule="evenodd" d="M211.83 501.176V502.739H233.687V501.176H211.83Z" fill="#4285F4"/>
<path fill-rule="evenodd" clip-rule="evenodd" d="M218.678 502.445L211.83 502.487C211.872 504.177 212.634 505.742 213.859 506.841C215.212 507.981 216.902 508.615 218.678 508.615V502.445V502.445Z" fill="#4285F4"/>
<path fill-rule="evenodd" clip-rule="evenodd" d="M218.003 502.317V508.573H224.681V502.317H218.003Z" fill="#4285F4"/>
<path fill-rule="evenodd" clip-rule="evenodd" d="M297.542 505.417L297 509.346C297 515.152 299.526 519.371 303.493 522.041C306.28 523.945 309.828 524.146 313.766 524.146C314.825 524.146 315.911 524.132 317.019 524.132C318.126 524.132 319.211 524.146 320.267 524.146C324.197 524.146 327.73 523.945 330.545 522.041C334.511 519.335 337 515.152 337 509.346L336.495 505.417H297.542Z" fill="#4285F4"/>
<path fill-rule="evenodd" clip-rule="evenodd" d="M317.091 470C309.12 470 302.555 471.479 301.869 473.318L297.542 505.414H336.495L332.276 473.318C331.59 471.479 325.025 470 317.091 470V470Z" fill="#9FC1F9"/>
<path fill-rule="evenodd" clip-rule="evenodd" d="M320.984 473.138C320.371 473.138 319.867 473.282 319.867 473.499C319.867 473.679 320.371 473.86 320.984 473.86C321.598 473.86 322.102 473.679 322.102 473.499C322.102 473.282 321.598 473.138 320.984 473.138Z" fill="#4285F4"/>
<path fill-rule="evenodd" clip-rule="evenodd" d="M314.926 473.138C314.312 473.138 313.807 473.282 313.807 473.499C313.807 473.679 314.312 473.86 314.926 473.86C315.538 473.86 316.044 473.679 316.044 473.499C316.044 473.282 315.538 473.138 314.926 473.138Z" fill="#4285F4"/>
<path fill-rule="evenodd" clip-rule="evenodd" d="M317.955 474.255C317.343 474.255 316.836 474.401 316.836 474.616C316.836 474.797 317.343 474.977 317.955 474.977C318.569 474.977 319.074 474.797 319.074 474.616C319.074 474.401 318.569 474.255 317.955 474.255Z" fill="#4285F4"/>
<path fill-rule="evenodd" clip-rule="evenodd" d="M319.35 488.604C318.825 488.604 318.313 488.864 317.952 489.379C317.558 489.893 317.379 492.869 317.379 493.845V494.409H321.463L321.713 493.331L322.071 494.409H325.546L325.796 492.973L325.94 494.409H327.982V493.794C327.982 492.869 327.802 489.893 327.444 489.379C327.05 488.864 326.536 488.604 326.012 488.604C325.964 488.604 325.915 488.606 325.867 488.61H319.492C319.444 488.606 319.396 488.604 319.35 488.604V488.604Z" fill="#4285F4"/>
<path fill-rule="evenodd" clip-rule="evenodd" d="M325.367 484.959C324.294 484.959 323.221 485.671 323.221 487.094H324.555C324.555 486.572 324.952 486.31 325.348 486.31C325.745 486.31 326.142 486.572 326.142 487.094H327.512C327.512 485.671 326.439 484.959 325.367 484.959V484.959Z" fill="#4285F4"/>
<path fill-rule="evenodd" clip-rule="evenodd" d="M320.011 484.959C318.947 484.959 317.883 485.671 317.883 487.094H319.217C319.217 486.572 319.614 486.31 320.011 486.31C320.407 486.31 320.804 486.572 320.804 487.094H322.138C322.138 485.671 321.075 484.959 320.011 484.959V484.959Z" fill="#4285F4"/>
<path fill-rule="evenodd" clip-rule="evenodd" d="M384.324 472C382.242 472 380.59 473.651 380.59 475.733V520.498C380.59 522.579 382.242 524.266 384.324 524.266H411.503C413.585 524.266 415.273 522.579 415.273 520.498V475.733C415.273 473.651 413.585 472 411.503 472H384.324Z" fill="#4285F4"/>
<path fill-rule="evenodd" clip-rule="evenodd" d="M380.59 474.944V519.384H404.681C406.404 519.384 407.805 517.984 407.805 516.261V478.103C407.805 476.379 406.404 474.944 404.681 474.944H380.59Z" fill="#9FC1F9"/>
<path fill-rule="evenodd" clip-rule="evenodd" d="M381.524 495.469C380.626 495.469 379.729 496.071 379.729 497.273H383.318C383.318 496.071 382.421 495.469 381.524 495.469V495.469Z" fill="#4285F4"/>
<path fill-rule="evenodd" clip-rule="evenodd" d="M395.74 501.977L395.704 502.013H385.221V503.986C385.221 506.908 387.632 509.251 390.507 509.251C390.67 509.251 390.835 509.243 391.002 509.227C393.731 508.868 395.777 506.536 395.74 503.771V501.977V501.977Z" fill="#4285F4"/>
<path fill-rule="evenodd" clip-rule="evenodd" d="M387.268 495.362C386.37 495.362 385.473 495.964 385.473 497.166H389.062C389.062 495.964 388.165 495.362 387.268 495.362V495.362Z" fill="#4285F4"/>
<path fill-rule="evenodd" clip-rule="evenodd" d="M384.575 495.622C384.503 497.309 383.14 498.638 381.452 498.638C379.801 498.638 378.4 497.309 378.328 495.622H384.575ZM377 494.294V495.586C377 498.063 379.011 500.037 381.452 500.073C383.93 500.037 385.905 498.063 385.94 495.586V494.294H377Z" fill="#4285F4"/>
<path fill-rule="evenodd" clip-rule="evenodd" d="M392.87 495.622V495.981C392.797 497.668 391.433 498.996 389.745 498.996C388.058 498.996 386.694 497.668 386.621 495.981V495.622H392.87ZM385.257 494.294V495.981C385.257 498.458 387.268 500.432 389.71 500.468C392.187 500.432 394.162 498.458 394.198 495.981V494.294H385.257Z" fill="#4285F4"/>
<path fill-rule="evenodd" clip-rule="evenodd" d="M554.933 486C554.933 502.01 567.893 514.97 583.906 514.97C599.92 514.97 612.881 502.01 612.881 486H554.933Z" fill="#9FC1F9"/>
<path fill-rule="evenodd" clip-rule="evenodd" d="M554 486V513.283L583.225 486H554Z" fill="#4285F4"/>
<path fill-rule="evenodd" clip-rule="evenodd" d="M598.265 495.658C597.26 495.658 596.435 496.484 596.435 497.524C596.435 498.566 597.26 499.391 598.265 499.391C599.307 499.391 600.133 498.566 600.133 497.524C600.133 496.484 599.307 495.658 598.265 495.658Z" fill="#4285F4"/>
<path fill-rule="evenodd" clip-rule="evenodd" d="M606.127 496.089C605.194 496.089 604.44 496.879 604.44 497.812C604.44 498.744 605.194 499.534 606.127 499.534C607.098 499.534 607.85 498.744 607.85 497.812C607.85 496.879 607.098 496.089 606.127 496.089Z" fill="#4285F4"/>
<path fill-rule="evenodd" clip-rule="evenodd" d="M580.782 495.263C580.782 501.94 586.096 504.381 589.649 504.381C592.845 504.381 610.115 504.238 610.294 504.238V502.908C610.115 502.908 592.845 503.053 589.649 503.053C586.634 503.053 582.146 500.971 582.146 495.263H580.782Z" fill="#4285F4"/>
<path fill-rule="evenodd" clip-rule="evenodd" d="M599.199 496.843C599.127 498.53 597.763 499.858 596.076 499.858C594.389 499.858 593.023 498.53 592.952 496.843H599.199ZM591.624 495.515V496.807C591.624 499.284 593.599 501.257 596.076 501.294C598.517 501.257 600.528 499.284 600.528 496.807V495.515H591.624Z" fill="#4285F4"/>
<path fill-rule="evenodd" clip-rule="evenodd" d="M607.456 496.879V497.238C607.384 498.889 605.985 500.217 604.333 500.217C602.646 500.217 601.281 498.889 601.209 497.238V496.879H607.456ZM599.845 495.515V497.238C599.881 499.679 601.856 501.689 604.333 501.689C606.775 501.652 608.786 499.679 608.786 497.238V495.515H599.845Z" fill="#4285F4"/>
<path fill-rule="evenodd" clip-rule="evenodd" d="M584.839 495.263V496.591H608.715V495.263H584.839Z" fill="#4285F4"/>
<path fill-rule="evenodd" clip-rule="evenodd" d="M485.983 470C476.72 470 469.217 477.466 469.217 486.729V500.477H475.069V486.729C475.069 480.697 479.952 475.815 485.983 475.815C492.015 475.815 496.898 480.697 496.898 486.729V500.046H502.714V486.729C502.714 477.466 495.211 470 485.983 470V470Z" fill="#4285F4"/>
<path fill-rule="evenodd" clip-rule="evenodd" d="M492.373 496.998C490.255 496.998 488.567 498.685 488.567 500.767V520.294C488.567 522.412 490.255 524.099 492.373 524.099H506.518C508.636 524.099 510.325 522.412 510.325 520.294V500.767C510.325 498.685 508.636 496.998 506.518 496.998H492.373Z" fill="#9FC1F9"/>
<path fill-rule="evenodd" clip-rule="evenodd" d="M493.486 503.244C493.45 503.244 493.415 503.28 493.415 503.316V516.778C493.415 518.608 494.921 520.116 496.753 520.116H502.784C504.616 520.116 506.051 518.643 506.051 516.849V503.244H493.486Z" fill="#4285F4"/>
<path fill-rule="evenodd" clip-rule="evenodd" d="M465.232 496.998C463.437 496.998 462 498.433 462 500.227V520.832C462 522.628 463.437 524.099 465.232 524.099H479.881C481.675 524.099 483.148 522.628 483.148 520.832V500.227C483.148 498.433 481.675 496.998 479.881 496.998H465.232Z" fill="#9FC1F9"/>
<path fill-rule="evenodd" clip-rule="evenodd" d="M498.157 500.479C497.498 500.479 496.842 500.91 496.86 501.771H499.481C499.481 500.91 498.817 500.479 498.157 500.479Z" fill="#4285F4"/>
<path fill-rule="evenodd" clip-rule="evenodd" d="M501.784 500.417C501.124 500.417 500.468 500.856 500.487 501.736H503.107C503.107 500.856 502.443 500.417 501.784 500.417Z" fill="#4285F4"/>
<defs>
<clipPath id="clip0_744_2">
<rect width="361.151" height="237.352" fill="white" transform="translate(179 175)"/>
</clipPath>
</defs>
</svg>
