<svg width="2870" height="1995" viewBox="0 0 2870 1995" fill="none" xmlns="http://www.w3.org/2000/svg">
<g clip-path="url(#clip0_4_135)">
<path d="M818.114 724.547C818.114 765.601 821.856 798.888 828.404 823.298C835.887 847.709 845.241 874.338 858.336 903.187C863.013 912.064 864.884 920.94 864.884 928.707C864.884 939.803 859.271 950.898 847.111 961.994L788.182 1008.6C779.764 1015.25 771.345 1018.58 763.862 1018.58C754.508 1018.58 745.154 1013.03 735.801 1003.05C722.705 986.404 711.481 968.651 702.127 950.898C692.773 932.036 683.419 910.954 673.13 885.434C600.17 987.514 508.502 1038.55 398.127 1038.55C319.555 1038.55 256.884 1011.92 211.05 958.665C165.216 905.406 141.832 834.394 141.832 745.629C141.832 651.315 169.893 574.755 226.952 517.058C284.01 459.36 359.776 430.512 456.121 430.512C487.924 430.512 520.662 433.84 555.272 439.388C589.881 444.936 625.425 453.813 662.841 463.799V382.8C662.841 298.473 647.875 239.666 618.878 205.27C588.945 170.873 538.435 154.23 466.41 154.23C433.672 154.23 399.998 158.668 365.389 168.654C330.779 178.64 297.106 190.845 264.367 206.379C249.401 214.146 238.176 218.585 231.629 220.804C225.081 223.023 220.404 224.132 216.663 224.132C203.567 224.132 197.02 213.037 197.02 189.736V135.367C197.02 117.614 198.89 104.299 203.567 96.5323C208.244 88.7653 216.663 80.9983 229.758 73.2314C262.496 53.2592 301.783 36.6157 347.616 23.3009C393.45 8.87653 442.09 2.21913 493.536 2.21913C604.847 2.21913 686.225 32.1774 738.607 92.094C790.053 152.011 816.244 242.995 816.244 365.047V724.547H818.114ZM438.349 893.201C469.216 893.201 501.019 886.544 534.693 873.229C568.367 859.914 598.299 835.503 623.555 802.216C638.521 781.135 649.745 757.834 655.358 731.204C660.97 704.575 664.711 672.397 664.711 634.672V588.07C637.585 580.303 608.588 573.646 578.656 569.208C548.724 564.769 519.727 562.55 490.73 562.55C428.059 562.55 382.226 576.974 351.358 606.933C320.49 636.891 305.524 679.055 305.524 734.533C305.524 786.683 316.749 825.517 340.133 852.147C362.582 879.886 395.321 893.201 438.349 893.201V893.201ZM1189.46 1013.03C1172.62 1013.03 1161.4 1009.71 1153.92 1001.94C1146.43 995.281 1139.89 979.747 1134.27 958.665L914.459 100.971C908.847 78.7792 906.041 64.3548 906.041 56.5879C906.041 38.8348 913.524 28.8487 928.49 28.8487H1020.16C1037.93 28.8487 1050.09 32.1774 1056.64 39.9444C1064.12 46.6018 1069.73 62.1357 1075.34 83.2175L1232.49 817.75L1378.41 83.2175C1383.09 61.0262 1388.7 46.6018 1396.18 39.9444C1403.66 33.287 1416.76 28.8487 1433.6 28.8487H1508.43C1526.2 28.8487 1538.36 32.1774 1545.84 39.9444C1553.33 46.6018 1559.87 62.1357 1563.62 83.2175L1711.41 826.627L1873.23 83.2175C1878.84 61.0262 1885.39 46.6018 1891.93 39.9444C1899.42 33.287 1911.58 28.8487 1928.41 28.8487H2015.41C2030.37 28.8487 2038.79 37.7253 2038.79 56.5879C2038.79 62.1357 2037.85 67.6835 2036.92 74.3409C2035.98 80.9983 2034.11 89.8749 2030.37 102.08L1804.94 959.775C1799.33 981.966 1792.78 996.391 1785.3 1003.05C1777.82 1009.71 1765.66 1014.14 1749.76 1014.14H1669.31C1651.54 1014.14 1639.38 1010.81 1631.9 1003.05C1624.42 995.281 1617.87 980.857 1614.13 958.665L1469.14 242.995L1325.09 957.556C1320.42 979.747 1314.8 994.171 1307.32 1001.94C1299.84 1009.71 1286.74 1013.03 1269.9 1013.03H1189.46ZM2391.43 1042.99C2342.79 1042.99 2294.15 1036.33 2247.38 1023.02C2200.61 1009.71 2164.13 995.281 2139.81 978.638C2124.85 968.651 2114.56 957.556 2110.81 947.57C2107.07 937.584 2105.2 926.488 2105.2 916.502V859.914C2105.2 836.613 2112.69 825.517 2126.72 825.517C2132.33 825.517 2137.94 826.627 2143.55 828.846C2149.17 831.065 2157.58 835.503 2166.94 839.942C2198.74 856.585 2233.35 869.9 2269.83 878.777C2307.25 887.653 2343.73 892.091 2381.14 892.091C2440.07 892.091 2485.9 879.886 2517.71 855.476C2549.51 831.065 2566.35 795.559 2566.35 750.067C2566.35 718.999 2557.93 693.479 2541.09 672.397C2524.25 651.315 2492.45 632.453 2446.62 614.7L2310.99 564.769C2242.7 539.249 2192.19 501.524 2161.33 451.593C2130.46 402.773 2114.56 348.404 2114.56 290.706C2114.56 244.105 2122.97 203.051 2139.81 167.545C2156.65 132.038 2179.1 100.971 2207.16 76.5601C2235.22 51.0401 2267.02 32.1774 2304.44 18.8626C2341.85 5.54783 2381.14 0 2422.3 0C2442.88 0 2464.39 1.10957 2484.97 4.43826C2506.48 7.76696 2526.13 12.2052 2545.77 16.6435C2564.48 22.1913 2582.25 27.7392 2599.08 34.3966C2615.92 41.054 2629.02 47.7114 2638.37 54.3688C2651.47 63.2453 2660.82 72.1218 2666.43 82.1079C2672.05 90.9844 2674.85 103.19 2674.85 118.724V170.873C2674.85 194.174 2667.37 206.379 2653.34 206.379C2645.85 206.379 2633.69 201.941 2617.79 193.065C2564.48 164.216 2504.61 149.791 2438.2 149.791C2384.88 149.791 2342.79 159.778 2313.79 180.859C2284.8 201.941 2269.83 234.118 2269.83 279.611C2269.83 310.679 2279.18 337.308 2297.89 358.39C2316.6 379.472 2351.21 400.553 2400.78 419.416L2533.61 469.347C2600.96 494.867 2649.6 530.373 2678.59 575.865C2707.59 621.357 2721.62 673.507 2721.62 731.204C2721.62 778.916 2713.2 822.189 2697.3 859.914C2680.46 897.639 2658.01 930.926 2629.02 957.556C2600.02 985.295 2565.41 1005.27 2525.19 1019.69C2483.1 1035.23 2439.13 1042.99 2391.43 1042.99V1042.99Z" fill="#252F3E"/>
<path fill-rule="evenodd" clip-rule="evenodd" d="M2597.17 1582.24C2285.93 1851.87 1833.72 1995 1444.9 1995C899.985 1995 408.992 1758.66 38.1462 1365.88C8.81905 1334.81 35.308 1292.64 70.3114 1317.06C471.431 1590.01 966.207 1755.33 1478.01 1755.33C1823.32 1755.33 2202.68 1671.01 2551.76 1497.91C2603.8 1470.18 2648.26 1537.86 2597.17 1582.24V1582.24Z" fill="#FF9900"/>
<path fill-rule="evenodd" clip-rule="evenodd" d="M2726.78 1409.15C2687.05 1349.23 2463.78 1380.3 2362.56 1394.72C2332.28 1399.16 2327.55 1368.1 2354.99 1344.79C2532.84 1198.33 2825.17 1240.5 2859.23 1289.32C2893.28 1339.25 2849.76 1682.1 2683.26 1846.32C2657.72 1871.84 2633.12 1858.52 2644.48 1825.24C2682.32 1715.39 2766.51 1467.96 2726.78 1409.15V1409.15Z" fill="#FF9900"/>
</g>
<defs>
<clipPath id="clip0_4_135">
<rect width="2870" height="1995" fill="white"/>
</clipPath>
</defs>
</svg>
