<svg width="242" height="146" viewBox="0 0 242 146" fill="none" xmlns="http://www.w3.org/2000/svg">
<path fill-rule="evenodd" clip-rule="evenodd" d="M36.1318 10.4614V16.0165C40.7148 16.0165 44.4036 19.7469 44.4036 24.2887C44.4036 28.8691 40.7148 32.5994 36.1318 32.5994V38.1545C43.7958 38.1545 50.0001 31.9513 50.0001 24.2887C50.0001 16.6242 43.7958 10.4614 36.1318 10.4614V10.4614Z" fill="#4285F4"/>
<path fill-rule="evenodd" clip-rule="evenodd" d="M3.2041 3V42.2495C3.2041 47.7642 7.66406 52.2656 13.2201 52.2656H28.996C34.5117 52.2656 38.9734 47.7642 38.9734 42.2495V3H3.2041Z" fill="#9FC1F9"/>
<path fill-rule="evenodd" clip-rule="evenodd" d="M13.8689 33.2107C12.9362 33.2107 12.165 33.98 12.165 34.9126C12.165 35.8873 12.9362 36.6565 13.8689 36.6565C14.8421 36.6565 15.6132 35.8873 15.6132 34.9126C15.6132 33.98 14.8421 33.2107 13.8689 33.2107Z" fill="#4285F4"/>
<path fill-rule="evenodd" clip-rule="evenodd" d="M7.98873 33.2107C7.056 33.2107 6.28662 33.98 6.28662 34.9126C6.28662 35.8873 7.056 36.6565 7.98873 36.6565C8.96189 36.6565 9.73302 35.8873 9.73302 34.9126C9.73302 33.98 8.96189 33.2107 7.98873 33.2107Z" fill="#4285F4"/>
<path fill-rule="evenodd" clip-rule="evenodd" d="M26.1573 16.4226V24.3698C26.1573 25.0583 26.1573 25.7485 26.1573 26.5177C26.2381 30.0057 26.3206 34.0206 23.886 36.4934C22.3051 38.1145 19.8318 38.8855 16.3028 38.8855H0V40.3854H16.3028C20.278 40.3854 23.1166 39.4528 24.9821 37.5472C27.8207 34.6283 27.7399 30.1269 27.6995 26.4773V24.4102V16.4226H26.1573Z" fill="#4285F4"/>
<path fill-rule="evenodd" clip-rule="evenodd" d="M24.3706 15.8958V17.436H29.3593V15.8958H24.3706Z" fill="#4285F4"/>
<path fill-rule="evenodd" clip-rule="evenodd" d="M93.9671 16C91.81 16 90.0337 17.732 90.0337 19.931V46.393H143.219V19.931C143.219 17.732 141.487 16 139.33 16H93.9671Z" fill="#9FC1F9"/>
<path fill-rule="evenodd" clip-rule="evenodd" d="M82.8481 45.5918C80.691 45.5918 78.9586 47.2817 79.0008 49.3964C78.9586 51.5093 80.691 53.201 82.7621 53.2432L150.153 53.7503C150.178 53.7503 150.204 53.7503 150.23 53.7503C152.308 53.7503 154 52.0329 154 49.9457C154 47.831 152.31 46.1411 150.239 46.099L82.8481 45.5918V45.5918Z" fill="#4285F4"/>
<path fill-rule="evenodd" clip-rule="evenodd" d="M121.74 25.0471C120.936 25.0471 120.261 25.6806 120.261 26.5265C120.261 27.3284 120.936 28.0058 121.74 28.0058C122.542 28.0058 123.22 27.3284 123.22 26.5265C123.22 25.6806 122.542 25.0471 121.74 25.0471Z" fill="#4285F4"/>
<path fill-rule="evenodd" clip-rule="evenodd" d="M115.229 25.0471C114.385 25.0471 113.75 25.6806 113.75 26.5265C113.75 27.3284 114.385 28.0058 115.229 28.0058C116.033 28.0058 116.709 27.3284 116.709 26.5265C116.709 25.6806 116.033 25.0471 115.229 25.0471Z" fill="#4285F4"/>
<path fill-rule="evenodd" clip-rule="evenodd" d="M104.83 31.1758V32.7394H126.687V31.1758H104.83Z" fill="#4285F4"/>
<path fill-rule="evenodd" clip-rule="evenodd" d="M111.678 32.4448L104.83 32.4869C104.872 34.1769 105.634 35.7423 106.859 36.8408C108.212 37.9815 109.902 38.615 111.678 38.615V32.4448V32.4448Z" fill="#4285F4"/>
<path fill-rule="evenodd" clip-rule="evenodd" d="M111.003 32.3164V38.5726H117.681V32.3164H111.003Z" fill="#4285F4"/>
<path fill-rule="evenodd" clip-rule="evenodd" d="M190.542 35.4165L190 39.3465C190 45.1524 192.526 49.3713 196.493 52.0408C199.28 53.9449 202.828 54.1463 206.766 54.1463C207.825 54.1463 208.911 54.1323 210.019 54.1323C211.126 54.1323 212.211 54.1463 213.267 54.1463C217.197 54.1463 220.73 53.9449 223.545 52.0408C227.511 49.3354 230 45.1524 230 39.3465L229.495 35.4165H190.542Z" fill="#4285F4"/>
<path fill-rule="evenodd" clip-rule="evenodd" d="M210.091 0C202.12 0 195.555 1.4792 194.869 3.31766L190.542 35.4135H229.495L225.276 3.31766C224.59 1.4792 218.025 0 210.091 0V0Z" fill="#9FC1F9"/>
<path fill-rule="evenodd" clip-rule="evenodd" d="M213.984 3.13818C213.371 3.13818 212.867 3.28189 212.867 3.49901C212.867 3.67863 213.371 3.85983 213.984 3.85983C214.598 3.85983 215.102 3.67863 215.102 3.49901C215.102 3.28189 214.598 3.13818 213.984 3.13818Z" fill="#4285F4"/>
<path fill-rule="evenodd" clip-rule="evenodd" d="M207.926 3.13818C207.312 3.13818 206.807 3.28189 206.807 3.49901C206.807 3.67863 207.312 3.85983 207.926 3.85983C208.538 3.85983 209.044 3.67863 209.044 3.49901C209.044 3.28189 208.538 3.13818 207.926 3.13818Z" fill="#4285F4"/>
<path fill-rule="evenodd" clip-rule="evenodd" d="M210.955 4.25513C210.343 4.25513 209.836 4.4004 209.836 4.61595C209.836 4.79714 210.343 4.97678 210.955 4.97678C211.569 4.97678 212.074 4.79714 212.074 4.61595C212.074 4.4004 211.569 4.25513 210.955 4.25513Z" fill="#4285F4"/>
<path fill-rule="evenodd" clip-rule="evenodd" d="M212.35 18.6035C211.825 18.6035 211.313 18.8636 210.952 19.3792C210.558 19.8927 210.379 22.869 210.379 23.8448V24.4093H214.463L214.713 23.3313L215.071 24.4093H218.546L218.796 22.9735L218.94 24.4093H220.982V23.7936C220.982 22.869 220.802 19.8927 220.444 19.3792C220.05 18.8636 219.536 18.6035 219.012 18.6035C218.964 18.6035 218.915 18.6057 218.867 18.6102H212.492C212.444 18.6057 212.396 18.6035 212.35 18.6035V18.6035Z" fill="#4285F4"/>
<path fill-rule="evenodd" clip-rule="evenodd" d="M218.367 14.959C217.294 14.959 216.221 15.6713 216.221 17.0942H217.555C217.555 16.5725 217.952 16.3101 218.348 16.3101C218.745 16.3101 219.142 16.5725 219.142 17.0942H220.512C220.512 15.6713 219.439 14.959 218.367 14.959V14.959Z" fill="#4285F4"/>
<path fill-rule="evenodd" clip-rule="evenodd" d="M213.011 14.959C211.947 14.959 210.883 15.6713 210.883 17.0942H212.217C212.217 16.5725 212.614 16.3101 213.011 16.3101C213.407 16.3101 213.804 16.5725 213.804 17.0942H215.138C215.138 15.6713 214.075 14.959 213.011 14.959V14.959Z" fill="#4285F4"/>
<path fill-rule="evenodd" clip-rule="evenodd" d="M8.32416 93C6.24185 93 4.59033 94.6513 4.59033 96.7332V141.498C4.59033 143.579 6.24185 145.266 8.32416 145.266H35.503C37.5853 145.266 39.2726 143.579 39.2726 141.498V96.7332C39.2726 94.6513 37.5853 93 35.503 93H8.32416Z" fill="#4285F4"/>
<path fill-rule="evenodd" clip-rule="evenodd" d="M4.59033 95.9436V140.384H28.6807C30.4037 140.384 31.8049 138.984 31.8049 137.261V99.1031C31.8049 97.3787 30.4037 95.9436 28.6807 95.9436H4.59033Z" fill="#9FC1F9"/>
<path fill-rule="evenodd" clip-rule="evenodd" d="M5.52362 116.469C4.62631 116.469 3.729 117.071 3.729 118.273H7.31821C7.31821 117.071 6.4209 116.469 5.52362 116.469V116.469Z" fill="#4285F4"/>
<path fill-rule="evenodd" clip-rule="evenodd" d="M19.74 122.977L19.7043 123.013H9.22119V124.986C9.22119 127.908 11.6316 130.251 14.507 130.251C14.6703 130.251 14.8352 130.243 15.0016 130.227C17.7308 129.868 19.7773 127.536 19.74 124.771V122.977V122.977Z" fill="#4285F4"/>
<path fill-rule="evenodd" clip-rule="evenodd" d="M11.2678 116.362C10.3705 116.362 9.47314 116.964 9.47314 118.166H13.0623C13.0623 116.964 12.1651 116.362 11.2678 116.362V116.362Z" fill="#4285F4"/>
<path fill-rule="evenodd" clip-rule="evenodd" d="M8.57498 116.622C8.50345 118.309 7.13959 119.638 5.4523 119.638C3.80075 119.638 2.3996 118.309 2.32806 116.622H8.57498ZM1 115.294V116.586C1 119.063 3.01074 121.038 5.4523 121.073C7.9296 121.038 9.9046 119.063 9.94037 116.586V115.294H1Z" fill="#4285F4"/>
<path fill-rule="evenodd" clip-rule="evenodd" d="M16.8696 116.622V116.981C16.7965 118.668 15.4327 119.996 13.7454 119.996C12.0581 119.996 10.6943 118.668 10.6212 116.981V116.622H16.8696ZM9.25732 115.294V116.981C9.25732 119.458 11.2681 121.433 13.7096 121.468C16.187 121.433 18.1619 119.458 18.1977 116.981V115.294H9.25732Z" fill="#4285F4"/>
<path fill-rule="evenodd" clip-rule="evenodd" d="M183.933 105C183.933 121.01 196.893 133.97 212.906 133.97C228.92 133.97 241.881 121.01 241.881 105H183.933Z" fill="#9FC1F9"/>
<path fill-rule="evenodd" clip-rule="evenodd" d="M183 105V132.283L212.225 105H183Z" fill="#4285F4"/>
<path fill-rule="evenodd" clip-rule="evenodd" d="M227.265 114.658C226.26 114.658 225.435 115.484 225.435 116.524C225.435 117.566 226.26 118.391 227.265 118.391C228.307 118.391 229.133 117.566 229.133 116.524C229.133 115.484 228.307 114.658 227.265 114.658Z" fill="#4285F4"/>
<path fill-rule="evenodd" clip-rule="evenodd" d="M235.127 115.089C234.194 115.089 233.44 115.879 233.44 116.812C233.44 117.745 234.194 118.534 235.127 118.534C236.098 118.534 236.85 117.745 236.85 116.812C236.85 115.879 236.098 115.089 235.127 115.089Z" fill="#4285F4"/>
<path fill-rule="evenodd" clip-rule="evenodd" d="M209.782 114.263C209.782 120.94 215.096 123.381 218.649 123.381C221.845 123.381 239.115 123.238 239.294 123.238V121.908C239.115 121.908 221.845 122.053 218.649 122.053C215.634 122.053 211.146 119.971 211.146 114.263H209.782Z" fill="#4285F4"/>
<path fill-rule="evenodd" clip-rule="evenodd" d="M228.199 115.843C228.127 117.53 226.763 118.858 225.076 118.858C223.389 118.858 222.023 117.53 221.952 115.843H228.199ZM220.624 114.515V115.807C220.624 118.284 222.599 120.257 225.076 120.295C227.517 120.257 229.528 118.284 229.528 115.807V114.515H220.624Z" fill="#4285F4"/>
<path fill-rule="evenodd" clip-rule="evenodd" d="M236.456 115.879V116.238C236.384 117.889 234.985 119.217 233.333 119.217C231.646 119.217 230.281 117.889 230.209 116.238V115.879H236.456ZM228.845 114.515V116.238C228.881 118.679 230.856 120.689 233.333 120.689C235.775 120.652 237.786 118.679 237.786 116.238V114.515H228.845Z" fill="#4285F4"/>
<path fill-rule="evenodd" clip-rule="evenodd" d="M213.839 114.263V115.591H237.715V114.263H213.839Z" fill="#4285F4"/>
<path fill-rule="evenodd" clip-rule="evenodd" d="M115.983 86C106.72 86 99.2168 93.4664 99.2168 102.729V116.477H105.069V102.729C105.069 96.6974 109.952 91.8152 115.983 91.8152C122.015 91.8152 126.898 96.6974 126.898 102.729V116.046H132.714V102.729C132.714 93.4664 125.211 86 115.983 86V86Z" fill="#4285F4"/>
<path fill-rule="evenodd" clip-rule="evenodd" d="M122.373 112.998C120.255 112.998 118.567 114.685 118.567 116.767V136.294C118.567 138.412 120.255 140.099 122.373 140.099H136.518C138.636 140.099 140.325 138.412 140.325 136.294V116.767C140.325 114.685 138.636 112.998 136.518 112.998H122.373Z" fill="#9FC1F9"/>
<path fill-rule="evenodd" clip-rule="evenodd" d="M123.486 119.244C123.45 119.244 123.415 119.28 123.415 119.316V132.778C123.415 134.608 124.921 136.116 126.753 136.116H132.784C134.616 136.116 136.051 134.643 136.051 132.849V119.244H123.486Z" fill="#4285F4"/>
<path fill-rule="evenodd" clip-rule="evenodd" d="M95.2315 112.998C93.4369 112.998 92 114.433 92 116.227V136.832C92 138.628 93.4369 140.099 95.2315 140.099H109.881C111.675 140.099 113.148 138.628 113.148 136.832V116.227C113.148 114.433 111.675 112.998 109.881 112.998H95.2315Z" fill="#9FC1F9"/>
<path fill-rule="evenodd" clip-rule="evenodd" d="M128.157 116.479C127.498 116.479 126.842 116.91 126.86 117.771H129.481C129.481 116.91 128.817 116.479 128.157 116.479Z" fill="#4285F4"/>
<path fill-rule="evenodd" clip-rule="evenodd" d="M131.784 116.417C131.124 116.417 130.468 116.855 130.487 117.736H133.107C133.107 116.855 132.443 116.417 131.784 116.417Z" fill="#4285F4"/>
</svg>
