<svg width="530" height="105" viewBox="0 0 530 105" fill="none" xmlns="http://www.w3.org/2000/svg">
<path d="M295.366 64.1592H261.611V16.8771C261.611 7.55575 269.168 -9.15092e-05 278.489 -9.15092e-05C287.81 -9.15092e-05 295.366 7.55575 295.366 16.8771V64.1592Z" fill="#9FC1F9"/>
<path d="M262.683 63.9012H230C230 81.8305 244.754 96.5845 262.683 96.5845C280.608 96.5845 295.359 81.8405 295.367 63.9167L262.683 63.9012Z" fill="#4285F4"/>
<path d="M314.826 85.209H404.947L367.821 6.40433C364.564 -0.505798 354.727 -0.483642 351.503 6.44088L314.826 85.209Z" fill="#9FC1F9"/>
<path d="M347.388 94.5864V45.9276H399.186L347.388 94.5864Z" fill="#4285F4"/>
<path d="M471.36 26.9125V84.5942H518.83V26.9125C518.83 13.8037 508.204 3.17779 495.095 3.17779C481.987 3.17779 471.36 13.8037 471.36 26.9125Z" fill="#9FC1F9" stroke="white"/>
<path d="M423.201 26.9125V84.5942H470.671V26.9125C470.671 13.8037 460.044 3.17779 446.936 3.17779C433.828 3.17779 423.201 13.8037 423.201 26.9125Z" fill="#9FC1F9" stroke="white"/>
<path d="M522.682 97.6145C512.925 107.371 497.106 107.371 487.349 97.6145C477.593 87.8568 477.593 72.0385 487.349 62.2819C497.106 52.5242 512.925 52.5242 522.682 62.2819C532.439 72.0385 532.439 87.8568 522.682 97.6145Z" fill="#4285F4"/>
<path d="M19.9587 81.7173C15.808 81.7173 11.748 80.36 7.784 77.6453C3.81867 74.9306 1.22267 71.1266 0 66.2293L6.70667 63.5146C7.504 66.656 9.14133 69.3026 11.616 71.4586C14.0907 73.6146 16.872 74.6906 19.9587 74.6906C23.1533 74.6906 25.8787 73.8546 28.1427 72.1773C30.404 70.5 31.5347 68.2253 31.5347 65.352C31.5347 62.1573 30.404 59.696 28.1427 57.9666C25.8787 56.2373 22.3 54.6279 17.404 53.1359C12.3467 51.5386 8.51467 49.4773 5.908 46.9493C3.3 44.4213 1.99467 41.1893 1.99467 37.2479C1.99467 33.1506 3.61867 29.584 6.86667 26.5506C10.1107 23.5173 14.3427 22 19.5587 22C24.4013 22 28.3413 23.212 31.376 25.6333C34.4093 28.056 36.3773 30.7026 37.2827 33.5773L30.5773 36.3706C30.0973 34.5626 28.9133 32.8853 27.024 31.3413C25.1347 29.7986 22.7 29.0253 19.7187 29.0253C16.8973 29.0253 14.4893 29.8106 12.4933 31.3813C10.4973 32.952 9.5 34.9079 9.5 37.2479C9.5 39.3786 10.4187 41.1746 12.2547 42.6373C14.0907 44.1026 16.792 45.4186 20.3587 46.5893C23.1787 47.4946 25.5333 48.3733 27.424 49.2239C29.312 50.0773 31.228 51.2079 33.1707 52.6173C35.1133 54.0279 36.5773 55.7853 37.5627 57.8866C38.5467 59.9893 39.04 62.424 39.04 65.1906C39.04 67.96 38.4667 70.4346 37.3227 72.616C36.1773 74.8 34.66 76.528 32.772 77.8053C30.8813 79.0826 28.8467 80.0546 26.664 80.72C24.4827 81.384 22.2467 81.7173 19.9587 81.7173Z" fill="#4285F4"/>
<path d="M63.2296 81.0791C59.131 81.0791 56.0043 79.9884 53.8496 77.8058C51.6936 75.6231 50.6163 72.5364 50.6163 68.5444V48.0271H43.751V41.3204H50.6163V29.3444H57.9603V41.3204H67.5403V48.0271H57.9603V67.9858C57.9603 72.2444 59.7163 74.3724 63.2296 74.3724C64.559 74.3724 65.6776 74.1604 66.583 73.7338L69.1376 80.0404C67.5403 80.7311 65.571 81.0791 63.2296 81.0791Z" fill="#4285F4"/>
<path d="M110.493 80.44H103.466V75.012H103.147C102.029 76.8746 100.326 78.4586 98.0379 79.7613C95.7486 81.0653 93.3273 81.7173 90.7726 81.7173C85.8753 81.7173 82.1633 80.228 79.6353 77.2453C77.1073 74.2666 75.8433 70.2746 75.8433 65.2706V41.32H83.1873V64.0746C83.1873 71.3653 86.4086 75.012 92.8486 75.012C95.8819 75.012 98.3566 73.788 100.273 71.3386C102.189 68.892 103.147 66.0706 103.147 62.876V41.32H110.493V80.44Z" fill="#4285F4"/>
<path d="M138.196 75.0115C141.655 75.0115 144.595 73.7341 147.017 71.1795C149.439 68.6248 150.651 65.1915 150.651 60.8795C150.651 56.5688 149.439 53.1368 147.017 50.5821C144.595 48.0275 141.655 46.7501 138.196 46.7501C134.788 46.7501 131.861 48.0395 129.413 50.6208C126.964 53.2035 125.741 56.6221 125.741 60.8795C125.741 65.1395 126.964 68.5581 129.413 71.1395C131.861 73.7208 134.788 75.0115 138.196 75.0115ZM136.999 81.7168C131.941 81.7168 127.577 79.7208 123.904 75.7288C120.232 71.7381 118.396 66.7875 118.396 60.8795C118.396 54.9728 120.232 50.0221 123.904 46.0315C127.577 42.0395 131.941 40.0421 136.999 40.0421C139.979 40.0421 142.653 40.6821 145.021 41.9595C147.389 43.2368 149.16 44.8328 150.331 46.7501H150.651L150.331 41.3195V23.2768H157.675V80.4395H150.651V75.0115H150.331C149.16 76.9275 147.389 78.5235 145.021 79.8008C142.653 81.0795 139.979 81.7168 136.999 81.7168Z" fill="#4285F4"/>
<path d="M178.671 97.6846H171.087L180.189 77.9646L164.061 41.3206H172.045L183.699 69.4232H183.861L195.198 41.3206H203.181L178.671 97.6846Z" fill="#4285F4"/>
</svg>
