<svg width="154" height="147" viewBox="0 0 154 147" fill="none" xmlns="http://www.w3.org/2000/svg">
<circle cx="137" cy="17" r="5" fill="#EA4335"/>
<circle cx="150.5" cy="71.5" r="3.5" fill="#0F9D58"/>
<circle cx="5.5" cy="98.5" r="5.5" fill="#4285F4"/>
<path fill-rule="evenodd" clip-rule="evenodd" d="M103.268 86.3198L106.74 80.4556H123.3L128.414 71.6358L118.186 54.0432H103.784L98.8111 45.3173H93.2284V39.4062H102.33L107.302 48.179H114.762L104.488 30.5864H84.4556V54.0432H92.5716L95.9963 59.9074H84.4556V71.6358H95.058L99.984 62.863H113.167L116.544 68.7272H103.409L98.4827 77.5H84.4556V98.0481H100.406L97.0284 103.912H84.4556V112.685H104.488L119.875 86.3198H110.07L106.646 92.184H93.2284V86.3198H103.268V86.3198Z" fill="#4285F4"/>
<path fill-rule="evenodd" clip-rule="evenodd" d="M59.7321 86.3198L56.2605 80.4556H39.7L34.5864 71.6358L44.8136 54.0432H59.2161L64.1889 45.3173H69.7716V39.4062H60.6704L55.6975 48.179H48.2383L58.5123 30.5864H78.5914V54.0432H70.4284L67.0037 59.9074H78.5914V71.6358H67.942L63.0161 62.863H49.8333L46.4556 68.7272H59.5914L64.5173 77.5H78.5914V98.0481H62.5938L65.9716 103.912H78.5914V112.685H58.5123L43.1247 86.3198H52.9296L56.3543 92.184H69.7716V86.3198H59.7321V86.3198Z" fill="#669DF6"/>
<circle cx="45" cy="6" r="6" fill="#FBBC04"/>
<rect x="72" y="132" width="3" height="10" fill="#4285F4"/>
<rect x="77" y="127" width="3" height="20" fill="#FBBC04"/>
<rect x="82" y="129" width="3" height="15" fill="#EA4335"/>
<rect x="87" y="131" width="3" height="11" fill="#0F9D58"/>
</svg>
