<svg width="200" height="91" viewBox="0 0 200 91" fill="none" xmlns="http://www.w3.org/2000/svg">
<path d="M87.9895 25L95.4166 20.7188C97.1666 19.6667 97.7708 17.4896 96.7291 15.7396C95.677 13.9896 93.4999 13.3854 91.7499 14.4271L78.9895 21.8542L87.9895 25Z" fill="#EA4335"/>
<path d="M93.5834 36.0833C94.8022 36.0833 96.1147 35.3854 96.7293 34.25C97.7813 32.5 97.1668 30.2292 95.4168 29.2708L82.573 21.8542C80.823 20.8021 78.5522 21.4167 77.5938 23.1667C76.5418 24.9167 77.1563 27.1875 78.9063 28.1458L91.7501 35.5729C92.3543 35.9167 92.9688 36.0833 93.5834 36.0833Z" fill="#4285F4"/>
<path d="M106.417 36.0833C107.021 36.0833 107.635 35.9062 108.25 35.5625L121.094 28.1354L112.094 24.9062L104.583 29.2708C102.833 30.3229 102.229 32.5 103.271 34.25C103.885 35.3854 105.115 36.0833 106.417 36.0833Z" fill="#FBBC04"/>
<path d="M119.261 28.6667C120.479 28.6667 121.792 27.9688 122.406 26.8333C123.458 25.0833 122.844 22.8125 121.094 21.8542L108.261 14.4271C106.511 13.375 104.24 13.9896 103.281 15.7396C102.229 17.4896 102.844 19.7604 104.594 20.7188L117.427 28.1458C117.948 28.4896 118.563 28.6667 119.261 28.6667Z" fill="#0F9D58"/>
<g clip-path="url(#clip0_0_1)">
<path d="M21.0554 60.1371C20.458 60.1371 19.8936 60.0354 19.3621 59.8321C18.8306 59.6247 18.365 59.336 17.9652 58.966C17.5655 58.596 17.2515 58.163 17.023 57.6669C16.7946 57.1708 16.6804 56.63 16.6804 56.0445C16.6804 55.463 16.7946 54.9243 17.023 54.4282C17.2515 53.9321 17.5655 53.4991 17.9652 53.1291C18.365 52.759 18.8306 52.4724 19.3621 52.2691C19.8936 52.0617 20.458 51.958 21.0554 51.958C21.6792 51.958 22.2634 52.0617 22.8081 52.2691C23.3571 52.4724 23.8096 52.759 24.1654 53.1291L23.4538 53.7878C23.2737 53.5804 23.0562 53.4076 22.8015 53.2693C22.5511 53.1311 22.2809 53.0254 21.991 52.9522C21.7011 52.879 21.3936 52.8424 21.0686 52.8424C20.6206 52.8424 20.1923 52.9176 19.7838 53.0681C19.3753 53.2185 19.0151 53.434 18.7032 53.7146C18.3913 53.9952 18.1453 54.3326 17.9652 54.7271C17.7852 55.1174 17.6951 55.5566 17.6951 56.0445C17.6951 56.5365 17.7873 56.9797 17.9718 57.3741C18.1563 57.7645 18.4045 58.0999 18.7164 58.3805C19.0326 58.6611 19.3928 58.8766 19.7969 59.027C20.2055 59.1775 20.6293 59.2527 21.0686 59.2527C21.4464 59.2527 21.8131 59.2039 22.1689 59.1063C22.5291 59.0047 22.852 58.8501 23.1375 58.6428C23.4274 58.4354 23.6668 58.1691 23.8557 57.8438C24.0446 57.5144 24.1588 57.12 24.1983 56.6605H21.0818V55.7944H25.1471C25.1603 55.892 25.1713 55.9855 25.18 56.075C25.1932 56.1604 25.1998 56.2539 25.1998 56.3556V56.3617C25.1998 56.9228 25.0966 57.4351 24.8901 57.8987C24.6881 58.3622 24.4026 58.7607 24.0336 59.0941C23.6646 59.4235 23.2275 59.6796 22.7224 59.8626C22.2172 60.0456 21.6616 60.1371 21.0554 60.1371ZM28.9221 60.1371C28.3159 60.1371 27.78 60.007 27.3144 59.7467C26.8532 59.4824 26.4908 59.1266 26.2272 58.6794C25.9637 58.228 25.8319 57.7258 25.8319 57.1729C25.8319 56.6199 25.9637 56.1197 26.2272 55.6724C26.4908 55.2211 26.8532 54.8653 27.3144 54.6051C27.78 54.3408 28.3159 54.2086 28.9221 54.2086C29.5282 54.2086 30.0619 54.3428 30.5232 54.6112C30.9888 54.8755 31.3533 55.2333 31.6169 55.6846C31.8848 56.1319 32.0188 56.628 32.0188 57.1729C32.0188 57.7258 31.8848 58.228 31.6169 58.6794C31.3533 59.1266 30.9888 59.4824 30.5232 59.7467C30.0619 60.007 29.5282 60.1371 28.9221 60.1371V60.1371ZM28.9221 59.2954C29.2823 59.2954 29.6227 59.212 29.9433 59.0453C30.264 58.8745 30.521 58.6306 30.7142 58.3134C30.9119 57.9962 31.0107 57.6161 31.0107 57.1729C31.0107 56.7296 30.9119 56.3495 30.7142 56.0323C30.521 55.7151 30.264 55.4732 29.9433 55.3065C29.6227 55.1357 29.2823 55.0503 28.9221 55.0503C28.5619 55.0503 28.2193 55.1357 27.8942 55.3065C27.5735 55.4732 27.3144 55.7151 27.1167 56.0323C26.9191 56.3495 26.8202 56.7296 26.8202 57.1729C26.8202 57.6161 26.9191 57.9962 27.1167 58.3134C27.3144 58.6306 27.5735 58.8745 27.8942 59.0453C28.2193 59.212 28.5619 59.2954 28.9221 59.2954V59.2954ZM35.9592 60.1371C35.353 60.1371 34.8171 60.007 34.3515 59.7467C33.8903 59.4824 33.5279 59.1266 33.2644 58.6794C33.0008 58.228 32.869 57.7258 32.869 57.1729C32.869 56.6199 33.0008 56.1197 33.2644 55.6724C33.5279 55.2211 33.8903 54.8653 34.3515 54.6051C34.8171 54.3408 35.353 54.2086 35.9592 54.2086C36.5654 54.2086 37.0991 54.3428 37.5603 54.6112C38.0259 54.8755 38.3905 55.2333 38.654 55.6846C38.922 56.1319 39.056 56.628 39.056 57.1729C39.056 57.7258 38.922 58.228 38.654 58.6794C38.3905 59.1266 38.0259 59.4824 37.5603 59.7467C37.0991 60.007 36.5654 60.1371 35.9592 60.1371ZM35.9592 59.2954C36.3194 59.2954 36.6598 59.212 36.9805 59.0453C37.3011 58.8745 37.5581 58.6306 37.7514 58.3134C37.949 57.9962 38.0479 57.6161 38.0479 57.1729C38.0479 56.7296 37.949 56.3495 37.7514 56.0323C37.5581 55.7151 37.3011 55.4732 36.9805 55.3065C36.6598 55.1357 36.3194 55.0503 35.9592 55.0503C35.599 55.0503 35.2564 55.1357 34.9313 55.3065C34.6107 55.4732 34.3515 55.7151 34.1538 56.0323C33.9562 56.3495 33.8574 56.7296 33.8574 57.1729C33.8574 57.6161 33.9562 57.9962 34.1538 58.3134C34.3515 58.6306 34.6107 58.8745 34.9313 59.0453C35.2564 59.212 35.599 59.2954 35.9592 59.2954ZM42.8645 62.4975C42.355 62.4975 41.9158 62.4182 41.5468 62.2596C41.1822 62.1051 40.8879 61.9059 40.6639 61.6619C40.4398 61.422 40.2817 61.178 40.1895 60.93L41.1053 60.5701C41.2327 60.8791 41.4479 61.1374 41.751 61.3447C42.0541 61.5521 42.4253 61.6558 42.8645 61.6558C43.4971 61.6558 43.9825 61.485 44.3207 61.1434C44.6589 60.806 44.828 60.3343 44.828 59.7284V59.1063H44.7819C44.593 59.3787 44.3207 59.6085 43.9649 59.7955C43.6091 59.9785 43.1962 60.07 42.7262 60.07C42.2079 60.07 41.7335 59.946 41.303 59.6979C40.8725 59.4499 40.5321 59.1063 40.2817 58.6672C40.0313 58.224 39.9062 57.7157 39.9062 57.1424C39.9062 56.565 40.0313 56.0567 40.2817 55.6175C40.5321 55.1743 40.8725 54.8287 41.303 54.5807C41.7335 54.3326 42.2079 54.2086 42.7262 54.2086C43.1962 54.2086 43.6091 54.3021 43.9649 54.4892C44.3207 54.6762 44.593 54.908 44.7819 55.1845H44.828V54.3855H45.7834V59.7406C45.7834 60.3587 45.6538 60.871 45.3947 61.2776C45.1399 61.6883 44.7951 61.9933 44.3602 62.1925C43.9254 62.3958 43.4268 62.4975 42.8645 62.4975ZM42.8645 59.2283C43.2203 59.2283 43.5476 59.147 43.8463 58.9843C44.145 58.8176 44.3822 58.5777 44.5579 58.2646C44.738 57.9515 44.828 57.5774 44.828 57.1424C44.828 56.691 44.738 56.3108 44.5579 56.0018C44.3822 55.6887 44.145 55.4529 43.8463 55.2943C43.5476 55.1316 43.2203 55.0503 42.8645 55.0503C42.5131 55.0503 42.1859 55.1337 41.8828 55.3004C41.5841 55.463 41.3447 55.6989 41.1646 56.0079C40.9845 56.3169 40.8945 56.6951 40.8945 57.1424C40.8945 57.5856 40.9845 57.9617 41.1646 58.2707C41.3447 58.5797 41.5841 58.8176 41.8828 58.9843C42.1859 59.147 42.5131 59.2283 42.8645 59.2283ZM47.2714 59.9602V52.1349H48.2729V59.9602H47.2714ZM52.3853 60.1371C51.8011 60.1371 51.2828 60.009 50.8303 59.7528C50.3779 59.4967 50.0243 59.147 49.7695 58.7038C49.5148 58.2605 49.3874 57.7543 49.3874 57.185C49.3874 56.6524 49.506 56.1604 49.7432 55.709C49.9848 55.2577 50.323 54.8958 50.7579 54.6234C51.1971 54.3469 51.7111 54.2086 52.2997 54.2086C52.897 54.2086 53.411 54.3306 53.8414 54.5746C54.2719 54.8185 54.6014 55.156 54.8298 55.5871C55.0626 56.0181 55.179 56.5101 55.179 57.0631C55.179 57.1159 55.1768 57.1688 55.1724 57.2216C55.1724 57.2704 55.168 57.3131 55.1592 57.3497H49.9738V56.5812H54.1182C54.1094 56.4308 54.0721 56.2661 54.0062 56.0872C53.9403 55.9083 53.8349 55.7416 53.6899 55.5871C53.545 55.4285 53.3583 55.3004 53.1299 55.2028C52.9058 55.1011 52.6291 55.0503 52.2997 55.0503C51.9087 55.0503 51.5683 55.1438 51.2784 55.3309C50.9929 55.5179 50.7732 55.7721 50.6195 56.0933C50.4658 56.4104 50.3889 56.7744 50.3889 57.185C50.3889 57.6567 50.4855 58.0491 50.6788 58.3622C50.8765 58.6753 51.1312 58.9091 51.4431 59.0636C51.755 59.2181 52.08 59.2954 52.4183 59.2954C52.8575 59.2954 53.2199 59.1998 53.5054 59.0087C53.7953 58.8135 54.0281 58.5736 54.2038 58.289L55.0538 58.6733C54.8166 59.0921 54.4762 59.4418 54.0325 59.7223C53.5933 59.9988 53.0442 60.1371 52.3853 60.1371ZM59.2881 59.9602V52.1349H61.838C62.7209 52.1349 63.4808 52.3016 64.1177 52.635C64.7546 52.9644 65.2466 53.4239 65.5936 54.0134C65.9406 54.603 66.1141 55.2801 66.1141 56.0445C66.1141 56.813 65.9406 57.49 65.5936 58.0755C65.2466 58.6611 64.7546 59.1226 64.1177 59.4601C63.4808 59.7935 62.7209 59.9602 61.838 59.9602H59.2881ZM60.2962 59.0758H61.838C62.5013 59.0758 63.0767 58.9579 63.5643 58.7221C64.0518 58.4822 64.4296 58.1365 64.6975 57.6852C64.9655 57.2338 65.0995 56.6869 65.0995 56.0445C65.0995 55.4061 64.9655 54.8612 64.6975 54.4099C64.4296 53.9586 64.0518 53.615 63.5643 53.3791C63.0767 53.1392 62.5013 53.0193 61.838 53.0193H60.2962V59.0758ZM69.8955 60.1371C69.3113 60.1371 68.793 60.009 68.3405 59.7528C67.8881 59.4967 67.5345 59.147 67.2797 58.7038C67.025 58.2605 66.8976 57.7543 66.8976 57.185C66.8976 56.6524 67.0162 56.1604 67.2534 55.709C67.495 55.2577 67.8332 54.8958 68.2681 54.6234C68.7073 54.3469 69.2212 54.2086 69.8098 54.2086C70.4072 54.2086 70.9212 54.3306 71.3516 54.5746C71.7821 54.8185 72.1115 55.156 72.34 55.5871C72.5728 56.0181 72.6892 56.5101 72.6892 57.0631C72.6892 57.1159 72.687 57.1688 72.6826 57.2216C72.6826 57.2704 72.6782 57.3131 72.6694 57.3497H67.484V56.5812H71.6284C71.6196 56.4308 71.5822 56.2661 71.5164 56.0872C71.4505 55.9083 71.345 55.7416 71.2001 55.5871C71.0551 55.4285 70.8684 55.3004 70.64 55.2028C70.416 55.1011 70.1393 55.0503 69.8098 55.0503C69.4189 55.0503 69.0785 55.1438 68.7886 55.3309C68.5031 55.5179 68.2834 55.7721 68.1297 56.0933C67.9759 56.4104 67.8991 56.7744 67.8991 57.185C67.8991 57.6567 67.9957 58.0491 68.189 58.3622C68.3866 58.6753 68.6414 58.9091 68.9533 59.0636C69.2652 59.2181 69.5902 59.2954 69.9284 59.2954C70.3677 59.2954 70.7301 59.1998 71.0156 59.0087C71.3055 58.8135 71.5383 58.5736 71.714 58.289L72.564 58.6733C72.3268 59.0921 71.9864 59.4418 71.5427 59.7223C71.1035 59.9988 70.5544 60.1371 69.8955 60.1371ZM75.5157 59.9602L73.0844 54.3855H74.1584L76.023 58.8684H76.0428L77.9338 54.3855H78.988L76.5303 59.9602H75.5157ZM82.3167 60.1371C81.7325 60.1371 81.2142 60.009 80.7618 59.7528C80.3093 59.4967 79.9557 59.147 79.701 58.7038C79.4462 58.2605 79.3188 57.7543 79.3188 57.185C79.3188 56.6524 79.4374 56.1604 79.6746 55.709C79.9162 55.2577 80.2544 54.8958 80.6893 54.6234C81.1286 54.3469 81.6425 54.2086 82.2311 54.2086C82.8285 54.2086 83.3424 54.3306 83.7729 54.5746C84.2034 54.8185 84.5328 55.156 84.7612 55.5871C84.994 56.0181 85.1104 56.5101 85.1104 57.0631C85.1104 57.1159 85.1082 57.1688 85.1038 57.2216C85.1038 57.2704 85.0994 57.3131 85.0907 57.3497H79.9052V56.5812H84.0496C84.0408 56.4308 84.0035 56.2661 83.9376 56.0872C83.8717 55.9083 83.7663 55.7416 83.6213 55.5871C83.4764 55.4285 83.2897 55.3004 83.0613 55.2028C82.8373 55.1011 82.5605 55.0503 82.2311 55.0503C81.8402 55.0503 81.4997 55.1438 81.2098 55.3309C80.9243 55.5179 80.7047 55.7721 80.5509 56.0933C80.3972 56.4104 80.3203 56.7744 80.3203 57.185C80.3203 57.6567 80.417 58.0491 80.6102 58.3622C80.8079 58.6753 81.0627 58.9091 81.3745 59.0636C81.6864 59.2181 82.0115 59.2954 82.3497 59.2954C82.7889 59.2954 83.1513 59.1998 83.4368 59.0087C83.7268 58.8135 83.9596 58.5736 84.1353 58.289L84.9852 58.6733C84.748 59.0921 84.4076 59.4418 83.964 59.7223C83.5247 59.9988 82.9756 60.1371 82.3167 60.1371ZM86.2826 59.9602V52.1349H87.2841V59.9602H86.2826ZM91.4888 60.1371C90.8826 60.1371 90.3467 60.007 89.8811 59.7467C89.4199 59.4824 89.0575 59.1266 88.7939 58.6794C88.5304 58.228 88.3986 57.7258 88.3986 57.1729C88.3986 56.6199 88.5304 56.1197 88.7939 55.6724C89.0575 55.2211 89.4199 54.8653 89.8811 54.6051C90.3467 54.3408 90.8826 54.2086 91.4888 54.2086C92.095 54.2086 92.6286 54.3428 93.0899 54.6112C93.5555 54.8755 93.9201 55.2333 94.1836 55.6846C94.4516 56.1319 94.5855 56.628 94.5855 57.1729C94.5855 57.7258 94.4516 58.228 94.1836 58.6794C93.9201 59.1266 93.5555 59.4824 93.0899 59.7467C92.6286 60.007 92.095 60.1371 91.4888 60.1371ZM91.4888 59.2954C91.849 59.2954 92.1894 59.212 92.51 59.0453C92.8307 58.8745 93.0877 58.6306 93.2809 58.3134C93.4786 57.9962 93.5774 57.6161 93.5774 57.1729C93.5774 56.7296 93.4786 56.3495 93.2809 56.0323C93.0877 55.7151 92.8307 55.4732 92.51 55.3065C92.1894 55.1357 91.849 55.0503 91.4888 55.0503C91.1286 55.0503 90.786 55.1357 90.4609 55.3065C90.1403 55.4732 89.8811 55.7151 89.6834 56.0323C89.4858 56.3495 89.3869 56.7296 89.3869 57.1729C89.3869 57.6161 89.4858 57.9962 89.6834 58.3134C89.8811 58.6306 90.1403 58.8745 90.4609 59.0453C90.786 59.212 91.1286 59.2954 91.4888 59.2954ZM95.693 62.3206V54.3855H96.6483V55.215H96.6945C96.8043 55.0402 96.9602 54.8775 97.1623 54.7271C97.3643 54.5725 97.5993 54.4485 97.8673 54.355C98.1352 54.2574 98.4295 54.2086 98.7502 54.2086C99.2993 54.2086 99.7912 54.3367 100.226 54.5929C100.661 54.849 101.004 55.1987 101.254 55.6419C101.504 56.0852 101.63 56.5955 101.63 57.1729C101.63 57.7502 101.504 58.2605 101.254 58.7038C101.004 59.147 100.661 59.4967 100.226 59.7528C99.7912 60.009 99.2993 60.1371 98.7502 60.1371C98.2714 60.1371 97.8497 60.0354 97.4851 59.8321C97.1249 59.6247 96.8614 59.395 96.6945 59.1429H96.6483L96.6945 59.9053V62.3206H95.693ZM98.6448 59.2954C98.9918 59.2954 99.3168 59.21 99.6199 59.0392C99.923 58.8644 100.167 58.6184 100.351 58.3012C100.536 57.98 100.628 57.6039 100.628 57.1729C100.628 56.7378 100.536 56.3617 100.351 56.0445C100.167 55.7273 99.923 55.4834 99.6199 55.3126C99.3168 55.1377 98.9918 55.0503 98.6448 55.0503C98.2978 55.0503 97.9727 55.1377 97.6696 55.3126C97.3665 55.4834 97.1206 55.7273 96.9317 56.0445C96.7428 56.3617 96.6483 56.7378 96.6483 57.1729C96.6483 57.612 96.7428 57.9901 96.9317 58.3073C97.1206 58.6204 97.3665 58.8644 97.6696 59.0392C97.9727 59.21 98.2978 59.2954 98.6448 59.2954ZM105.483 60.1371C104.898 60.1371 104.38 60.009 103.928 59.7528C103.475 59.4967 103.122 59.147 102.867 58.7038C102.612 58.2605 102.485 57.7543 102.485 57.185C102.485 56.6524 102.603 56.1604 102.84 55.709C103.082 55.2577 103.42 54.8958 103.855 54.6234C104.294 54.3469 104.808 54.2086 105.397 54.2086C105.994 54.2086 106.508 54.3306 106.939 54.5746C107.369 54.8185 107.699 55.156 107.927 55.5871C108.16 56.0181 108.276 56.5101 108.276 57.0631C108.276 57.1159 108.274 57.1688 108.27 57.2216C108.27 57.2704 108.265 57.3131 108.257 57.3497H103.071V56.5812H107.215C107.207 56.4308 107.169 56.2661 107.103 56.0872C107.038 55.9083 106.932 55.7416 106.787 55.5871C106.642 55.4285 106.456 55.3004 106.227 55.2028C106.003 55.1011 105.726 55.0503 105.397 55.0503C105.006 55.0503 104.666 55.1438 104.376 55.3309C104.09 55.5179 103.871 55.7721 103.717 56.0933C103.563 56.4104 103.486 56.7744 103.486 57.185C103.486 57.6567 103.583 58.0491 103.776 58.3622C103.974 58.6753 104.229 58.9091 104.54 59.0636C104.852 59.2181 105.177 59.2954 105.516 59.2954C105.955 59.2954 106.317 59.1998 106.603 59.0087C106.893 58.8135 107.125 58.5736 107.301 58.289L108.151 58.6733C107.914 59.0921 107.573 59.4418 107.13 59.7223C106.691 59.9988 106.141 60.1371 105.483 60.1371ZM109.448 59.9602V54.3855H110.404V55.2821H110.45C110.529 55.0706 110.661 54.8877 110.845 54.7332C111.03 54.5746 111.243 54.4506 111.484 54.3611C111.726 54.2676 111.963 54.2208 112.196 54.2208C112.38 54.2208 112.523 54.231 112.624 54.2513C112.725 54.2676 112.82 54.294 112.908 54.3306V55.337C112.78 55.2801 112.644 55.2374 112.499 55.2089C112.354 55.1764 112.207 55.1601 112.058 55.1601C111.768 55.1601 111.5 55.2374 111.254 55.3919C111.012 55.5464 110.817 55.7517 110.667 56.0079C110.522 56.26 110.45 56.5385 110.45 56.8435V59.9602H109.448V59.9602ZM118.824 60.1371C118.416 60.1371 118.009 60.0578 117.605 59.8992C117.206 59.7366 116.852 59.4987 116.545 59.1856C116.237 58.8725 116.013 58.4822 115.872 58.0145L116.828 57.6547C116.96 58.106 117.203 58.4862 117.559 58.7952C117.915 59.1002 118.343 59.2527 118.844 59.2527C119.16 59.2527 119.45 59.1998 119.714 59.0941C119.977 58.9884 120.19 58.8339 120.353 58.6306C120.515 58.4232 120.597 58.1752 120.597 57.8865C120.597 57.6222 120.526 57.3985 120.386 57.2155C120.25 57.0326 120.043 56.872 119.766 56.7337C119.49 56.5914 119.152 56.4531 118.752 56.319L118.218 56.1482C117.985 56.0669 117.748 55.9693 117.507 55.8554C117.265 55.7416 117.043 55.6033 116.841 55.4407C116.643 55.278 116.485 55.0828 116.367 54.8551C116.248 54.6234 116.189 54.3509 116.189 54.0378C116.189 53.6597 116.299 53.3141 116.518 53.001C116.738 52.6838 117.041 52.4317 117.427 52.2447C117.814 52.0536 118.26 51.958 118.765 51.958C119.292 51.958 119.734 52.0475 120.089 52.2264C120.45 52.4053 120.733 52.6167 120.939 52.8607C121.15 53.1047 121.291 53.3283 121.361 53.5316L120.425 53.9037C120.381 53.7532 120.291 53.5967 120.155 53.434C120.023 53.2673 119.846 53.127 119.622 53.0132C119.398 52.8993 119.116 52.8424 118.778 52.8424C118.501 52.8424 118.242 52.8953 118.001 53.001C117.763 53.1026 117.57 53.2429 117.421 53.4218C117.276 53.5967 117.203 53.802 117.203 54.0378C117.203 54.3631 117.344 54.6213 117.625 54.8124C117.911 55.0036 118.295 55.1743 118.778 55.3248L119.332 55.5017C119.582 55.583 119.839 55.6826 120.103 55.8005C120.366 55.9144 120.612 56.0628 120.84 56.2458C121.069 56.4287 121.253 56.6524 121.394 56.9167C121.539 57.181 121.611 57.5002 121.611 57.8743C121.611 58.2727 121.526 58.6163 121.354 58.905C121.187 59.1937 120.966 59.4296 120.689 59.6125C120.412 59.7915 120.109 59.9236 119.78 60.009C119.455 60.0944 119.136 60.1371 118.824 60.1371ZM122.187 54.3855H125.718V55.2272H122.187V54.3855ZM123.241 58.4964V52.8119H124.242V58.2646C124.242 58.5574 124.306 58.7851 124.433 58.9477C124.565 59.1063 124.78 59.1856 125.079 59.1856C125.215 59.1856 125.338 59.1673 125.448 59.1307C125.558 59.0941 125.657 59.0494 125.745 58.9965V59.9053C125.639 59.95 125.525 59.9846 125.402 60.009C125.283 60.0334 125.121 60.0456 124.914 60.0456C124.409 60.0456 124.003 59.9094 123.695 59.6369C123.392 59.3645 123.241 58.9843 123.241 58.4964ZM129.092 60.1371C128.354 60.1371 127.799 59.9378 127.425 59.5394C127.052 59.1368 126.865 58.5879 126.865 57.8926V54.3855H127.867V57.7523C127.867 58.3053 128.003 58.7017 128.275 58.9416C128.552 59.1775 128.897 59.2954 129.31 59.2954C129.661 59.2954 129.966 59.21 130.226 59.0392C130.489 58.8644 130.691 58.6428 130.832 58.3744C130.972 58.106 131.043 57.8255 131.043 57.5327V54.3855H132.044V59.9602H131.089V59.149H131.043C130.942 59.3238 130.79 59.4865 130.588 59.6369C130.386 59.7874 130.157 59.9073 129.903 59.9968C129.648 60.0903 129.378 60.1371 129.092 60.1371ZM136.039 60.1371C135.495 60.1371 135.003 60.009 134.563 59.7528C134.129 59.4967 133.786 59.147 133.536 58.7038C133.285 58.2605 133.16 57.7502 133.16 57.1729C133.16 56.5955 133.285 56.0852 133.536 55.6419C133.786 55.1987 134.129 54.849 134.563 54.5929C135.003 54.3367 135.495 54.2086 136.039 54.2086C136.36 54.2086 136.654 54.2574 136.922 54.355C137.19 54.4485 137.423 54.5725 137.621 54.7271C137.823 54.8775 137.981 55.0402 138.095 55.215H138.141L138.095 54.4404V52.1349H139.097V59.9602H138.141V59.1429H138.095C137.981 59.3096 137.823 59.4702 137.621 59.6247C137.423 59.7752 137.19 59.8972 136.922 59.9907C136.654 60.0883 136.36 60.1371 136.039 60.1371ZM136.145 59.2954C136.492 59.2954 136.817 59.21 137.12 59.0392C137.423 58.8644 137.669 58.6204 137.858 58.3073C138.047 57.9901 138.141 57.612 138.141 57.1729C138.141 56.7378 138.047 56.3617 137.858 56.0445C137.669 55.7273 137.423 55.4834 137.12 55.3126C136.817 55.1377 136.492 55.0503 136.145 55.0503C135.798 55.0503 135.473 55.1377 135.17 55.3126C134.866 55.4834 134.62 55.7273 134.432 56.0445C134.243 56.3617 134.148 56.7378 134.148 57.1729C134.148 57.6039 134.243 57.98 134.432 58.3012C134.62 58.6184 134.866 58.8644 135.17 59.0392C135.473 59.21 135.798 59.2954 136.145 59.2954ZM143.207 60.1371C142.623 60.1371 142.104 60.009 141.652 59.7528C141.199 59.4967 140.846 59.147 140.591 58.7038C140.336 58.2605 140.209 57.7543 140.209 57.185C140.209 56.6524 140.327 56.1604 140.565 55.709C140.806 55.2577 141.145 54.8958 141.579 54.6234C142.019 54.3469 142.533 54.2086 143.121 54.2086C143.719 54.2086 144.232 54.3306 144.663 54.5746C145.093 54.8185 145.423 55.156 145.651 55.5871C145.884 56.0181 146 56.5101 146 57.0631C146 57.1159 145.998 57.1688 145.994 57.2216C145.994 57.2704 145.99 57.3131 145.981 57.3497H140.795V56.5812H144.94C144.931 56.4308 144.894 56.2661 144.828 56.0872C144.762 55.9083 144.656 55.7416 144.511 55.5871C144.366 55.4285 144.18 55.3004 143.951 55.2028C143.727 55.1011 143.451 55.0503 143.121 55.0503C142.73 55.0503 142.39 55.1438 142.1 55.3309C141.814 55.5179 141.595 55.7721 141.441 56.0933C141.287 56.4104 141.21 56.7744 141.21 57.185C141.21 57.6567 141.307 58.0491 141.5 58.3622C141.698 58.6753 141.953 58.9091 142.265 59.0636C142.576 59.2181 142.902 59.2954 143.24 59.2954C143.679 59.2954 144.041 59.1998 144.327 59.0087C144.617 58.8135 144.85 58.5736 145.025 58.289L145.875 58.6733C145.638 59.0921 145.298 59.4418 144.854 59.7223C144.415 59.9988 143.866 60.1371 143.207 60.1371ZM147.173 59.9602V54.3855H148.128V55.2028H148.174C148.332 54.9344 148.589 54.7027 148.945 54.5075C149.305 54.3082 149.698 54.2086 150.124 54.2086C150.862 54.2086 151.418 54.4079 151.791 54.8063C152.169 55.2048 152.358 55.7314 152.358 56.386V59.9602H151.35V56.5263C151.35 55.9896 151.209 55.6094 150.928 55.3858C150.652 55.1621 150.294 55.0503 149.854 55.0503C149.52 55.0503 149.228 55.1377 148.978 55.3126C148.728 55.4834 148.53 55.7029 148.385 55.9713C148.244 56.2397 148.174 56.5243 148.174 56.8252V59.9602H147.173ZM153.086 54.3855H156.618V55.2272H153.086V54.3855ZM154.14 58.4964V52.8119H155.142V58.2646C155.142 58.5574 155.206 58.7851 155.333 58.9477C155.465 59.1063 155.68 59.1856 155.979 59.1856C156.115 59.1856 156.238 59.1673 156.348 59.1307C156.458 59.0941 156.556 59.0494 156.644 58.9965V59.9053C156.539 59.95 156.425 59.9846 156.302 60.009C156.183 60.0334 156.02 60.0456 155.814 60.0456C155.309 60.0456 154.903 59.9094 154.595 59.6369C154.292 59.3645 154.14 58.9843 154.14 58.4964ZM164.478 60.1371C163.859 60.1371 163.284 60.0334 162.752 59.826C162.221 59.6186 161.755 59.332 161.355 58.966C160.96 58.596 160.652 58.1609 160.433 57.6608C160.213 57.1607 160.103 56.6219 160.103 56.0445C160.103 55.463 160.213 54.9243 160.433 54.4282C160.652 53.9321 160.96 53.5011 161.355 53.1352C161.755 52.7651 162.221 52.4764 162.752 52.2691C163.284 52.0617 163.859 51.958 164.478 51.958C164.913 51.958 165.317 52.0088 165.691 52.1105C166.064 52.2121 166.409 52.3585 166.725 52.5496C167.041 52.7407 167.325 52.9705 167.575 53.2388L166.857 53.8854C166.642 53.6455 166.413 53.4483 166.172 53.2937C165.934 53.1392 165.675 53.0254 165.394 52.9522C165.117 52.879 164.812 52.8424 164.478 52.8424C163.872 52.8424 163.314 52.9745 162.805 53.2388C162.295 53.4991 161.887 53.8691 161.579 54.3489C161.272 54.8246 161.118 55.3898 161.118 56.0445C161.118 56.6951 161.272 57.2603 161.579 57.7401C161.887 58.2199 162.295 58.5919 162.805 58.8562C163.314 59.1205 163.872 59.2527 164.478 59.2527C164.852 59.2527 165.192 59.2059 165.5 59.1124C165.811 59.0148 166.099 58.8786 166.363 58.7038C166.626 58.5289 166.87 58.3215 167.094 58.0816L167.825 58.7343C167.579 59.0067 167.285 59.2486 166.943 59.4601C166.6 59.6715 166.222 59.8382 165.809 59.9602C165.396 60.0781 164.953 60.1371 164.478 60.1371ZM168.945 59.9602V52.1349H169.947V59.9602H168.945ZM173.618 60.1371C172.88 60.1371 172.324 59.9378 171.951 59.5394C171.577 59.1368 171.39 58.5879 171.39 57.8926V54.3855H172.392V57.7523C172.392 58.3053 172.528 58.7017 172.8 58.9416C173.077 59.1775 173.422 59.2954 173.835 59.2954C174.186 59.2954 174.492 59.21 174.751 59.0392C175.014 58.8644 175.216 58.6428 175.357 58.3744C175.498 58.106 175.568 57.8255 175.568 57.5327V54.3855H176.569V59.9602H175.614V59.149H175.568C175.467 59.3238 175.315 59.4865 175.113 59.6369C174.911 59.7874 174.683 59.9073 174.428 59.9968C174.173 60.0903 173.903 60.1371 173.618 60.1371ZM181.118 60.1371C180.797 60.1371 180.503 60.0883 180.235 59.9907C179.967 59.8972 179.732 59.7752 179.53 59.6247C179.328 59.4702 179.172 59.3096 179.062 59.1429H179.016V59.9602H178.06V52.1349H179.062V54.4404L179.016 55.215H179.062C179.172 55.0402 179.328 54.8775 179.53 54.7271C179.732 54.5725 179.967 54.4485 180.235 54.355C180.503 54.2574 180.797 54.2086 181.118 54.2086C181.667 54.2086 182.159 54.3367 182.594 54.5929C183.028 54.849 183.371 55.1987 183.621 55.6419C183.872 56.0852 183.997 56.5955 183.997 57.1729C183.997 57.7502 183.872 58.2605 183.621 58.7038C183.371 59.147 183.028 59.4967 182.594 59.7528C182.159 60.009 181.667 60.1371 181.118 60.1371ZM181.012 59.2954C181.359 59.2954 181.684 59.21 181.987 59.0392C182.291 58.8644 182.534 58.6184 182.719 58.3012C182.903 57.98 182.996 57.6039 182.996 57.1729C182.996 56.7378 182.903 56.3617 182.719 56.0445C182.534 55.7273 182.291 55.4834 181.987 55.3126C181.684 55.1377 181.359 55.0503 181.012 55.0503C180.665 55.0503 180.34 55.1377 180.037 55.3126C179.734 55.4834 179.488 55.7273 179.299 56.0445C179.11 56.3617 179.016 56.7378 179.016 57.1729C179.016 57.612 179.11 57.9901 179.299 58.3073C179.488 58.6204 179.734 58.8644 180.037 59.0392C180.34 59.21 180.665 59.2954 181.012 59.2954ZM187.211 60.1371C186.763 60.1371 186.368 60.07 186.025 59.9358C185.683 59.7976 185.399 59.6146 185.175 59.3869C184.951 59.1551 184.784 58.905 184.675 58.6367L185.571 58.2646C185.729 58.6021 185.957 58.8623 186.256 59.0453C186.555 59.2242 186.897 59.3137 187.284 59.3137C187.653 59.3137 187.96 59.2446 188.206 59.1063C188.457 58.9681 188.582 58.7647 188.582 58.4964C188.582 58.3297 188.529 58.1894 188.424 58.0755C188.323 57.9617 188.173 57.8661 187.976 57.7889C187.782 57.7075 187.543 57.6344 187.257 57.5693L186.526 57.3924C186.24 57.3192 185.973 57.2176 185.722 57.0875C185.472 56.9533 185.27 56.7825 185.116 56.5751C184.962 56.3678 184.885 56.1157 184.885 55.8188C184.885 55.4813 184.991 55.1926 185.202 54.9527C185.417 54.7128 185.696 54.5299 186.038 54.4038C186.385 54.2737 186.757 54.2086 187.152 54.2086C187.499 54.2086 187.824 54.2554 188.127 54.3489C188.43 54.4384 188.696 54.5725 188.924 54.7515C189.153 54.9304 189.326 55.152 189.445 55.4163L188.569 55.7822C188.419 55.5057 188.217 55.3146 187.962 55.2089C187.712 55.0991 187.433 55.0442 187.126 55.0442C186.796 55.0442 186.508 55.1113 186.262 55.2455C186.021 55.3797 185.9 55.5627 185.9 55.7944C185.9 56.0303 185.999 56.2071 186.197 56.3251C186.399 56.4389 186.647 56.5324 186.941 56.6056L187.811 56.813C188.404 56.9512 188.85 57.1566 189.148 57.429C189.447 57.7015 189.596 58.0349 189.596 58.4293C189.596 58.779 189.489 59.0819 189.274 59.3381C189.063 59.5942 188.775 59.7915 188.41 59.9297C188.05 60.068 187.651 60.1371 187.211 60.1371Z" fill="#676C72"/>
<path d="M42.0568 78.8839C41.6519 78.8839 41.2948 78.7922 40.9854 78.6089C40.676 78.4217 40.4335 78.1639 40.2578 77.8354C40.0859 77.5031 40 77.1193 40 76.6839V73.1604H40.6646V76.7182C40.6646 77.0085 40.7161 77.2701 40.8193 77.5031C40.9262 77.7361 41.0809 77.9194 41.2833 78.0531C41.4896 78.183 41.7474 78.2479 42.0568 78.2479C42.3661 78.2479 42.624 78.183 42.8302 78.0531C43.0403 77.9194 43.1969 77.7361 43.3 77.5031C43.4031 77.2701 43.4547 77.0085 43.4547 76.7182V73.1604H44.1193V76.6839C44.1193 77.1193 44.0372 77.5031 43.8729 77.8354C43.7087 78.1639 43.4719 78.4217 43.1625 78.6089C42.8569 78.7922 42.4884 78.8839 42.0568 78.8839ZM45.1067 78.7578V74.7703H45.7426V75.3547H45.7713C45.8744 75.1637 46.0444 74.9976 46.2812 74.8562C46.5218 74.7149 46.7815 74.6443 47.0603 74.6443C47.553 74.6443 47.9216 74.7875 48.1661 75.074C48.4143 75.3566 48.5385 75.7328 48.5385 76.2026V78.7578H47.8739V76.3C47.8739 75.9142 47.7803 75.6431 47.5931 75.4865C47.4098 75.326 47.173 75.2458 46.8827 75.2458C46.665 75.2458 46.4721 75.3069 46.3041 75.4292C46.136 75.5514 46.0043 75.7099 45.9088 75.9047C45.8171 76.0957 45.7713 76.2981 45.7713 76.512V78.7578H45.1067ZM49.5569 78.7578V74.7703H50.2215V78.7578H49.5569ZM49.8835 74.037C49.7536 74.037 49.6409 73.9892 49.5455 73.8937C49.4538 73.7983 49.408 73.6856 49.408 73.5557C49.408 73.422 49.4538 73.3094 49.5455 73.2177C49.6409 73.126 49.7536 73.0802 49.8835 73.0802C50.021 73.0802 50.1356 73.126 50.2272 73.2177C50.3189 73.3094 50.3647 73.422 50.3647 73.5557C50.3647 73.6856 50.3189 73.7983 50.2272 73.8937C50.1356 73.9892 50.021 74.037 49.8835 74.037ZM52.4358 78.7578L50.8259 74.7703H51.5363L52.7681 77.9729H52.7853L54.0399 74.7703H54.7332L53.1061 78.7578H52.4358V78.7578ZM56.9397 78.8839C56.5539 78.8839 56.2101 78.7922 55.9084 78.6089C55.6105 78.4255 55.3756 78.1753 55.2037 77.8583C55.0357 77.5413 54.9516 77.1785 54.9516 76.7698C54.9516 76.3917 55.0299 76.0403 55.1865 75.7156C55.347 75.391 55.5723 75.1312 55.8626 74.9365C56.1529 74.7417 56.4928 74.6443 56.8824 74.6443C57.2796 74.6443 57.6195 74.7321 57.9022 74.9078C58.1886 75.0797 58.4082 75.3203 58.561 75.6297C58.7138 75.9391 58.7902 76.2905 58.7902 76.6839C58.7902 76.722 58.7883 76.7602 58.7845 76.7984C58.7845 76.8328 58.7825 76.8634 58.7787 76.8901H55.3412V76.3401H58.0912C58.0836 76.2332 58.0568 76.1167 58.011 75.9906C57.969 75.8608 57.8983 75.7405 57.799 75.6297C57.7035 75.5151 57.5813 75.4234 57.4324 75.3547C57.2872 75.2821 57.1039 75.2458 56.8824 75.2458C56.6226 75.2458 56.3973 75.3127 56.2063 75.4464C56.0154 75.58 55.8683 75.7615 55.7652 75.9906C55.6659 76.2198 55.6162 76.4795 55.6162 76.7698C55.6162 77.1097 55.6812 77.3924 55.811 77.6177C55.9409 77.8392 56.1089 78.0054 56.3152 78.1161C56.5214 78.2269 56.7372 78.2823 56.9626 78.2823C57.2529 78.2823 57.4935 78.2135 57.6845 78.076C57.8754 77.9347 58.0282 77.7628 58.1428 77.5604L58.7042 77.8354C58.5476 78.1372 58.3242 78.3873 58.0339 78.5859C57.7437 78.7845 57.3789 78.8839 56.9397 78.8839ZM59.5665 78.7578V74.7703H60.2024V75.412H60.2311C60.2845 75.2592 60.3724 75.1274 60.4946 75.0167C60.6168 74.9021 60.7562 74.8123 60.9128 74.7474C61.0732 74.6825 61.2318 74.65 61.3883 74.65C61.5068 74.65 61.6003 74.6576 61.6691 74.6729C61.7378 74.6844 61.8008 74.7035 61.8581 74.7302V75.4521C61.7741 75.4101 61.6844 75.3795 61.5889 75.3604C61.4934 75.3375 61.396 75.326 61.2967 75.326C61.1019 75.326 60.9243 75.3814 60.7639 75.4922C60.6035 75.5991 60.4736 75.7443 60.3743 75.9276C60.2788 76.1109 60.2311 76.3115 60.2311 76.5292V78.7578H59.5665ZM63.7348 78.8839C63.4369 78.8839 63.1734 78.8361 62.9442 78.7406C62.7189 78.6413 62.5317 78.5095 62.3828 78.3453C62.2376 78.1811 62.1269 78.0035 62.0505 77.8125L62.6463 77.5432C62.7532 77.7839 62.9041 77.9691 63.0989 78.099C63.2975 78.2288 63.5248 78.2938 63.7807 78.2938C64.0251 78.2938 64.2295 78.246 64.3937 78.1505C64.5579 78.0512 64.6401 77.9042 64.6401 77.7094C64.6401 77.591 64.6057 77.4917 64.5369 77.4115C64.472 77.3274 64.3746 77.2568 64.2447 77.1995C64.1149 77.1422 63.9545 77.0906 63.7635 77.0448L63.2822 76.9187C63.0951 76.8691 62.9175 76.7965 62.7494 76.701C62.5814 76.6056 62.4458 76.4852 62.3427 76.3401C62.2434 76.1911 62.1937 76.0097 62.1937 75.7958C62.1937 75.5552 62.2644 75.349 62.4057 75.1771C62.547 75.0052 62.7322 74.8734 62.9614 74.7818C63.1906 74.6901 63.435 74.6443 63.6947 74.6443C63.9239 74.6443 64.1378 74.6767 64.3364 74.7417C64.5388 74.8066 64.7145 74.904 64.8635 75.0339C65.0163 75.1599 65.1328 75.3165 65.213 75.5036L64.6343 75.7729C64.535 75.5743 64.4013 75.4368 64.2333 75.3604C64.069 75.2802 63.8838 75.2401 63.6776 75.2401C63.4598 75.2401 63.2689 75.2878 63.1046 75.3833C62.9442 75.4788 62.864 75.6106 62.864 75.7786C62.864 75.9467 62.9309 76.0727 63.0645 76.1568C63.1982 76.237 63.3624 76.3038 63.5572 76.3573L64.1359 76.5062C64.5255 76.6056 64.8196 76.7526 65.0182 76.9474C65.2168 77.1422 65.3161 77.3809 65.3161 77.6635C65.3161 77.9118 65.2454 78.1276 65.1041 78.3109C64.9628 78.4943 64.7718 78.6356 64.5312 78.7349C64.2906 78.8342 64.0251 78.8839 63.7348 78.8839ZM66.0656 78.7578V74.7703H66.7302V78.7578H66.0656ZM66.3921 74.037C66.2623 74.037 66.1496 73.9892 66.0541 73.8937C65.9625 73.7983 65.9166 73.6856 65.9166 73.5557C65.9166 73.422 65.9625 73.3094 66.0541 73.2177C66.1496 73.126 66.2623 73.0802 66.3921 73.0802C66.5296 73.0802 66.6442 73.126 66.7359 73.2177C66.8276 73.3094 66.8734 73.422 66.8734 73.5557C66.8734 73.6856 66.8276 73.7983 66.7359 73.8937C66.6442 73.9892 66.5296 74.037 66.3921 74.037ZM69.4267 78.8839C69.0677 78.8839 68.743 78.7922 68.4527 78.6089C68.1663 78.4255 67.939 78.1753 67.771 77.8583C67.6029 77.5413 67.5189 77.1766 67.5189 76.7641C67.5189 76.3516 67.6029 75.9868 67.771 75.6698C67.939 75.3528 68.1663 75.1026 68.4527 74.9193C68.743 74.7359 69.0677 74.6443 69.4267 74.6443C69.6406 74.6443 69.8354 74.6786 70.0111 74.7474C70.1906 74.8123 70.3472 74.9002 70.4808 75.0109C70.6145 75.1217 70.7177 75.2401 70.7902 75.3661H70.8189L70.7902 74.8104V73.1604H71.4548V78.7578H70.8189V78.1734H70.7902C70.7177 78.2918 70.6145 78.4064 70.4808 78.5172C70.3472 78.6241 70.1906 78.712 70.0111 78.7807C69.8354 78.8495 69.6406 78.8839 69.4267 78.8839V78.8839ZM69.4954 78.2823C69.7284 78.2823 69.9442 78.2212 70.1428 78.099C70.3453 77.9767 70.5076 77.803 70.6298 77.5776C70.7558 77.3484 70.8189 77.0773 70.8189 76.7641C70.8189 76.4509 70.7558 76.1816 70.6298 75.9562C70.5076 75.7271 70.3453 75.5514 70.1428 75.4292C69.9442 75.3069 69.7284 75.2458 69.4954 75.2458C69.2663 75.2458 69.0505 75.3069 68.848 75.4292C68.6494 75.5514 68.4871 75.7271 68.3611 75.9562C68.2388 76.1816 68.1777 76.4509 68.1777 76.7641C68.1777 77.0696 68.2388 77.3389 68.3611 77.5719C68.4871 77.801 68.6494 77.9767 68.848 78.099C69.0505 78.2212 69.2663 78.2823 69.4954 78.2823ZM73.6715 78.8839C73.3774 78.8839 73.1176 78.8266 72.8923 78.712C72.6669 78.5974 72.4893 78.4408 72.3595 78.2422C72.2334 78.0398 72.1704 77.8106 72.1704 77.5547C72.1704 77.2606 72.2468 77.0142 72.3996 76.8156C72.5524 76.6132 72.7548 76.4623 73.0069 76.363C73.2628 76.2599 73.5454 76.2083 73.8548 76.2083C74.0305 76.2083 74.1928 76.2236 74.3418 76.2542C74.4945 76.2809 74.6263 76.3134 74.7371 76.3516C74.8517 76.3898 74.9376 76.428 74.9949 76.4661V76.2255C74.9949 75.9238 74.888 75.6851 74.6741 75.5094C74.4602 75.3299 74.2005 75.2401 73.8949 75.2401C73.6734 75.2401 73.4671 75.2878 73.2761 75.3833C73.089 75.4788 72.94 75.6125 72.8293 75.7844L72.3308 75.412C72.434 75.2554 72.5638 75.1198 72.7204 75.0052C72.877 74.8906 73.0546 74.8028 73.2532 74.7417C73.4557 74.6767 73.6695 74.6443 73.8949 74.6443C74.4373 74.6443 74.8612 74.7875 75.1668 75.074C75.4761 75.3604 75.6308 75.7462 75.6308 76.2312V78.7578H74.9949V78.1849H74.9662C74.8975 78.2995 74.8001 78.4102 74.6741 78.5172C74.548 78.6241 74.401 78.712 74.2329 78.7807C74.0649 78.8495 73.8777 78.8839 73.6715 78.8839V78.8839ZM73.7345 78.2938C73.9636 78.2938 74.1737 78.2365 74.3647 78.1219C74.5557 78.0073 74.7084 77.8545 74.823 77.6635C74.9376 77.4688 74.9949 77.2568 74.9949 77.0276C74.8765 76.9436 74.7275 76.8767 74.548 76.8271C74.3685 76.7736 74.1718 76.7469 73.9579 76.7469C73.576 76.7469 73.2952 76.8252 73.1157 76.9818C72.94 77.1384 72.8522 77.3312 72.8522 77.5604C72.8522 77.7781 72.9362 77.9557 73.1043 78.0932C73.2723 78.2269 73.4824 78.2938 73.7345 78.2938ZM78.2089 78.8839C77.8499 78.8839 77.5252 78.7922 77.2349 78.6089C76.9485 78.4255 76.7212 78.1753 76.5532 77.8583C76.3851 77.5413 76.3011 77.1766 76.3011 76.7641C76.3011 76.3516 76.3851 75.9868 76.5532 75.6698C76.7212 75.3528 76.9485 75.1026 77.2349 74.9193C77.5252 74.7359 77.8499 74.6443 78.2089 74.6443C78.4228 74.6443 78.6176 74.6786 78.7933 74.7474C78.9728 74.8123 79.1294 74.9002 79.2631 75.0109C79.3968 75.1217 79.4999 75.2401 79.5724 75.3661H79.6011L79.5724 74.8104V73.1604H80.237V78.7578H79.6011V78.1734H79.5724C79.4999 78.2918 79.3968 78.4064 79.2631 78.5172C79.1294 78.6241 78.9728 78.712 78.7933 78.7807C78.6176 78.8495 78.4228 78.8839 78.2089 78.8839V78.8839ZM78.2777 78.2823C78.5106 78.2823 78.7264 78.2212 78.9251 78.099C79.1275 77.9767 79.2898 77.803 79.412 77.5776C79.5381 77.3484 79.6011 77.0773 79.6011 76.7641C79.6011 76.4509 79.5381 76.1816 79.412 75.9562C79.2898 75.7271 79.1275 75.5514 78.9251 75.4292C78.7264 75.3069 78.5106 75.2458 78.2777 75.2458C78.0485 75.2458 77.8327 75.3069 77.6303 75.4292C77.4317 75.5514 77.2693 75.7271 77.1433 75.9562C77.0211 76.1816 76.9599 76.4509 76.9599 76.7641C76.9599 77.0696 77.0211 77.3389 77.1433 77.5719C77.2693 77.801 77.4317 77.9767 77.6303 78.099C77.8327 78.2212 78.0485 78.2823 78.2777 78.2823ZM83.167 78.7578V73.1604H83.9806L86.7878 77.6177H86.8222L86.7878 76.5349V73.1604H87.4524V78.7578H86.7649L83.8316 74.0885H83.803L83.8316 75.1656V78.7578H83.167V78.7578ZM89.7266 78.8839C89.4325 78.8839 89.1728 78.8266 88.9474 78.712C88.7221 78.5974 88.5445 78.4408 88.4146 78.2422C88.2886 78.0398 88.2255 77.8106 88.2255 77.5547C88.2255 77.2606 88.3019 77.0142 88.4547 76.8156C88.6075 76.6132 88.8099 76.4623 89.062 76.363C89.3179 76.2599 89.6005 76.2083 89.9099 76.2083C90.0856 76.2083 90.2479 76.2236 90.3969 76.2542C90.5497 76.2809 90.6814 76.3134 90.7922 76.3516C90.9068 76.3898 90.9927 76.428 91.05 76.4661V76.2255C91.05 75.9238 90.9431 75.6851 90.7292 75.5094C90.5153 75.3299 90.2556 75.2401 89.95 75.2401C89.7285 75.2401 89.5222 75.2878 89.3313 75.3833C89.1441 75.4788 88.9952 75.6125 88.8844 75.7844L88.386 75.412C88.4891 75.2554 88.6189 75.1198 88.7755 75.0052C88.9321 74.8906 89.1097 74.8028 89.3084 74.7417C89.5108 74.6767 89.7247 74.6443 89.95 74.6443C90.4924 74.6443 90.9163 74.7875 91.2219 75.074C91.5313 75.3604 91.686 75.7462 91.686 76.2312V78.7578H91.05V78.1849H91.0214C90.9526 78.2995 90.8552 78.4102 90.7292 78.5172C90.6031 78.6241 90.4561 78.712 90.288 78.7807C90.12 78.8495 89.9328 78.8839 89.7266 78.8839V78.8839ZM89.7896 78.2938C90.0188 78.2938 90.2288 78.2365 90.4198 78.1219C90.6108 78.0073 90.7636 77.8545 90.8781 77.6635C90.9927 77.4688 91.05 77.2568 91.05 77.0276C90.9316 76.9436 90.7827 76.8767 90.6031 76.8271C90.4236 76.7736 90.2269 76.7469 90.013 76.7469C89.6311 76.7469 89.3504 76.8252 89.1709 76.9818C88.9952 77.1384 88.9073 77.3312 88.9073 77.5604C88.9073 77.7781 88.9913 77.9557 89.1594 78.0932C89.3275 78.2269 89.5375 78.2938 89.7896 78.2938ZM94.3729 78.8839C93.9833 78.8839 93.6357 78.7922 93.3302 78.6089C93.0246 78.4217 92.7859 78.1677 92.614 77.8469C92.4422 77.526 92.3562 77.1651 92.3562 76.7641C92.3562 76.3554 92.4422 75.9925 92.614 75.6755C92.7859 75.3585 93.0246 75.1083 93.3302 74.925C93.6357 74.7378 93.9833 74.6443 94.3729 74.6443C94.8236 74.6443 95.1922 74.7474 95.4786 74.9536C95.7689 75.1599 95.9751 75.4234 96.0974 75.7443L95.4958 75.9964C95.3965 75.7519 95.2475 75.5667 95.0489 75.4406C94.8541 75.3108 94.6192 75.2458 94.3442 75.2458C94.1074 75.2458 93.8878 75.3089 93.6854 75.4349C93.4868 75.5609 93.3245 75.7366 93.1984 75.962C93.0762 76.1873 93.0151 76.4547 93.0151 76.7641C93.0151 77.0658 93.0762 77.3312 93.1984 77.5604C93.3245 77.7896 93.4868 77.9672 93.6854 78.0932C93.8878 78.2193 94.1074 78.2823 94.3442 78.2823C94.6269 78.2823 94.8694 78.2174 95.0719 78.0875C95.2743 77.9538 95.4251 77.7686 95.5245 77.5318L96.1203 77.7781C95.9904 78.0875 95.7784 78.3491 95.4844 78.563C95.1941 78.7769 94.8236 78.8839 94.3729 78.8839ZM96.9011 78.7578V74.7703H97.5657V78.7578H96.9011ZM97.2277 74.037C97.0978 74.037 96.9852 73.9892 96.8897 73.8937C96.798 73.7983 96.7522 73.6856 96.7522 73.5557C96.7522 73.422 96.798 73.3094 96.8897 73.2177C96.9852 73.126 97.0978 73.0802 97.2277 73.0802C97.3652 73.0802 97.4798 73.126 97.5714 73.2177C97.6631 73.3094 97.7089 73.422 97.7089 73.5557C97.7089 73.6856 97.6631 73.7983 97.5714 73.8937C97.4798 73.9892 97.3652 74.037 97.2277 74.037ZM100.405 78.8839C100.004 78.8839 99.6492 78.7903 99.3398 78.6031C99.0343 78.416 98.7937 78.162 98.618 77.8411C98.4423 77.5203 98.3544 77.1613 98.3544 76.7641C98.3544 76.3668 98.4423 76.0078 98.618 75.687C98.7937 75.3661 99.0343 75.1122 99.3398 74.925C99.6492 74.7378 100.004 74.6443 100.405 74.6443C100.807 74.6443 101.16 74.7398 101.465 74.9307C101.775 75.1217 102.015 75.3776 102.187 75.6984C102.363 76.0193 102.451 76.3745 102.451 76.7641C102.451 77.1613 102.363 77.5203 102.187 77.8411C102.015 78.162 101.775 78.416 101.465 78.6031C101.16 78.7903 100.807 78.8839 100.405 78.8839V78.8839ZM100.405 78.2823C100.646 78.2823 100.871 78.2231 101.082 78.1047C101.292 77.9825 101.462 77.8087 101.591 77.5833C101.721 77.3542 101.786 77.0811 101.786 76.7641C101.786 76.447 101.721 76.1759 101.591 75.9505C101.462 75.7214 101.292 75.5476 101.082 75.4292C100.871 75.3069 100.646 75.2458 100.405 75.2458C100.165 75.2458 99.9376 75.3069 99.7237 75.4292C99.5098 75.5476 99.3379 75.7214 99.2081 75.9505C99.0782 76.1759 99.0133 76.447 99.0133 76.7641C99.0133 77.0811 99.0782 77.3542 99.2081 77.5833C99.3379 77.8087 99.5098 77.9825 99.7237 78.1047C99.9376 78.2231 100.165 78.2823 100.405 78.2823V78.2823ZM103.149 78.7578V74.7703H103.785V75.3547H103.814C103.917 75.1637 104.087 74.9976 104.324 74.8562C104.564 74.7149 104.824 74.6443 105.103 74.6443C105.595 74.6443 105.964 74.7875 106.208 75.074C106.457 75.3566 106.581 75.7328 106.581 76.2026V78.7578H105.916V76.3C105.916 75.9142 105.823 75.6431 105.636 75.4865C105.452 75.326 105.215 75.2458 104.925 75.2458C104.707 75.2458 104.515 75.3069 104.346 75.4292C104.178 75.5514 104.047 75.7099 103.951 75.9047C103.86 76.0957 103.814 76.2981 103.814 76.512V78.7578H103.149ZM108.769 78.8839C108.475 78.8839 108.215 78.8266 107.99 78.712C107.765 78.5974 107.587 78.4408 107.457 78.2422C107.331 78.0398 107.268 77.8106 107.268 77.5547C107.268 77.2606 107.344 77.0142 107.497 76.8156C107.65 76.6132 107.852 76.4623 108.104 76.363C108.36 76.2599 108.643 76.2083 108.952 76.2083C109.128 76.2083 109.29 76.2236 109.439 76.2542C109.592 76.2809 109.724 76.3134 109.835 76.3516C109.949 76.3898 110.035 76.428 110.093 76.4661V76.2255C110.093 75.9238 109.986 75.6851 109.772 75.5094C109.558 75.3299 109.298 75.2401 108.993 75.2401C108.771 75.2401 108.565 75.2878 108.374 75.3833C108.187 75.4788 108.038 75.6125 107.927 75.7844L107.428 75.412C107.532 75.2554 107.661 75.1198 107.818 75.0052C107.975 74.8906 108.152 74.8028 108.351 74.7417C108.553 74.6767 108.767 74.6443 108.993 74.6443C109.535 74.6443 109.959 74.7875 110.264 75.074C110.574 75.3604 110.728 75.7462 110.728 76.2312V78.7578H110.093V78.1849H110.064C109.995 78.2995 109.898 78.4102 109.772 78.5172C109.646 78.6241 109.499 78.712 109.331 78.7807C109.162 78.8495 108.975 78.8839 108.769 78.8839V78.8839ZM108.832 78.2938C109.061 78.2938 109.271 78.2365 109.462 78.1219C109.653 78.0073 109.806 77.8545 109.921 77.6635C110.035 77.4688 110.093 77.2568 110.093 77.0276C109.974 76.9436 109.825 76.8767 109.646 76.8271C109.466 76.7736 109.269 76.7469 109.056 76.7469C108.674 76.7469 108.393 76.8252 108.213 76.9818C108.038 77.1384 107.95 77.3312 107.95 77.5604C107.95 77.7781 108.034 77.9557 108.202 78.0932C108.37 78.2269 108.58 78.2938 108.832 78.2938ZM111.65 78.7578V73.1604H112.314V78.7578H111.65ZM116.81 78.8839C116.451 78.8839 116.126 78.7922 115.836 78.6089C115.55 78.4255 115.322 78.1753 115.154 77.8583C114.986 77.5413 114.902 77.1766 114.902 76.7641C114.902 76.3516 114.986 75.9868 115.154 75.6698C115.322 75.3528 115.55 75.1026 115.836 74.9193C116.126 74.7359 116.451 74.6443 116.81 74.6443C117.024 74.6443 117.219 74.6786 117.394 74.7474C117.574 74.8123 117.731 74.9002 117.864 75.0109C117.998 75.1217 118.101 75.2401 118.174 75.3661H118.202L118.174 74.8104V73.1604H118.838V78.7578H118.202V78.1734H118.174C118.101 78.2918 117.998 78.4064 117.864 78.5172C117.731 78.6241 117.574 78.712 117.394 78.7807C117.219 78.8495 117.024 78.8839 116.81 78.8839V78.8839ZM116.879 78.2823C117.112 78.2823 117.328 78.2212 117.526 78.099C117.729 77.9767 117.891 77.803 118.013 77.5776C118.139 77.3484 118.202 77.0773 118.202 76.7641C118.202 76.4509 118.139 76.1816 118.013 75.9562C117.891 75.7271 117.729 75.5514 117.526 75.4292C117.328 75.3069 117.112 75.2458 116.879 75.2458C116.65 75.2458 116.434 75.3069 116.231 75.4292C116.033 75.5514 115.87 75.7271 115.744 75.9562C115.622 76.1816 115.561 76.4509 115.561 76.7641C115.561 77.0696 115.622 77.3389 115.744 77.5719C115.87 77.801 116.033 77.9767 116.231 78.099C116.434 78.2212 116.65 78.2823 116.879 78.2823ZM121.559 78.8839C121.173 78.8839 120.829 78.7922 120.528 78.6089C120.23 78.4255 119.995 78.1753 119.823 77.8583C119.655 77.5413 119.571 77.1785 119.571 76.7698C119.571 76.3917 119.649 76.0403 119.806 75.7156C119.966 75.391 120.192 75.1312 120.482 74.9365C120.772 74.7417 121.112 74.6443 121.502 74.6443C121.899 74.6443 122.239 74.7321 122.521 74.9078C122.808 75.0797 123.028 75.3203 123.18 75.6297C123.333 75.9391 123.41 76.2905 123.41 76.6839C123.41 76.722 123.408 76.7602 123.404 76.7984C123.404 76.8328 123.402 76.8634 123.398 76.8901H119.961V76.3401H122.711C122.703 76.2332 122.676 76.1167 122.63 75.9906C122.588 75.8608 122.518 75.7405 122.418 75.6297C122.323 75.5151 122.201 75.4234 122.052 75.3547C121.907 75.2821 121.723 75.2458 121.502 75.2458C121.242 75.2458 121.017 75.3127 120.826 75.4464C120.635 75.58 120.488 75.7615 120.385 75.9906C120.285 76.2198 120.236 76.4795 120.236 76.7698C120.236 77.1097 120.3 77.3924 120.43 77.6177C120.56 77.8392 120.728 78.0054 120.935 78.1161C121.141 78.2269 121.357 78.2823 121.582 78.2823C121.872 78.2823 122.113 78.2135 122.304 78.076C122.495 77.9347 122.648 77.7628 122.762 77.5604L123.324 77.8354C123.167 78.1372 122.944 78.3873 122.653 78.5859C122.363 78.7845 121.998 78.8839 121.559 78.8839ZM126.132 78.7578V73.1604H126.796V78.7578H126.132ZM127.916 78.7578V74.7703H128.552V75.3547H128.581C128.684 75.1637 128.854 74.9976 129.091 74.8562C129.331 74.7149 129.591 74.6443 129.87 74.6443C130.362 74.6443 130.731 74.7875 130.975 75.074C131.224 75.3566 131.348 75.7328 131.348 76.2026V78.7578H130.683V76.3C130.683 75.9142 130.59 75.6431 130.403 75.4865C130.219 75.326 129.982 75.2458 129.692 75.2458C129.474 75.2458 129.282 75.3069 129.114 75.4292C128.945 75.5514 128.814 75.7099 128.718 75.9047C128.627 76.0957 128.581 76.2981 128.581 76.512V78.7578H127.916ZM134.017 80.574C133.677 80.574 133.385 80.5167 133.141 80.4021C132.9 80.2913 132.705 80.15 132.556 79.9781C132.407 79.8063 132.302 79.6306 132.241 79.451L132.849 79.1932C132.933 79.4148 133.074 79.6 133.273 79.749C133.475 79.8979 133.723 79.9724 134.017 79.9724C134.434 79.9724 134.753 79.8502 134.974 79.6057C135.199 79.3651 135.312 79.0271 135.312 78.5917V78.1505H135.283C135.157 78.3415 134.976 78.5038 134.739 78.6375C134.506 78.7712 134.233 78.838 133.92 78.838C133.576 78.838 133.263 78.7502 132.98 78.5745C132.698 78.395 132.472 78.1486 132.304 77.8354C132.136 77.5184 132.052 77.1536 132.052 76.7411C132.052 76.3286 132.136 75.9658 132.304 75.6526C132.472 75.3356 132.698 75.0892 132.98 74.9135C133.263 74.734 133.576 74.6443 133.92 74.6443C134.233 74.6443 134.506 74.7111 134.739 74.8448C134.976 74.9785 135.157 75.1427 135.283 75.3375H135.312V74.7703H135.948V78.6031C135.948 79.0462 135.862 79.4128 135.69 79.7031C135.522 79.9972 135.293 80.2149 135.003 80.3563C134.716 80.5014 134.388 80.574 134.017 80.574V80.574ZM134.017 78.2365C134.25 78.2365 134.466 78.1773 134.665 78.0589C134.863 77.9405 135.02 77.7705 135.135 77.549C135.253 77.3236 135.312 77.0543 135.312 76.7411C135.312 76.4165 135.253 76.1434 135.135 75.9219C135.02 75.7003 134.863 75.5323 134.665 75.4177C134.466 75.3031 134.25 75.2458 134.017 75.2458C133.781 75.2458 133.563 75.305 133.364 75.4234C133.169 75.5418 133.011 75.7118 132.889 75.9333C132.77 76.1549 132.711 76.4241 132.711 76.7411C132.711 77.0582 132.77 77.3274 132.889 77.549C133.011 77.7705 133.169 77.9405 133.364 78.0589C133.563 78.1773 133.781 78.2365 134.017 78.2365ZM138.67 78.8839C138.284 78.8839 137.94 78.7922 137.639 78.6089C137.341 78.4255 137.106 78.1753 136.934 77.8583C136.766 77.5413 136.682 77.1785 136.682 76.7698C136.682 76.3917 136.76 76.0403 136.917 75.7156C137.077 75.391 137.303 75.1312 137.593 74.9365C137.883 74.7417 138.223 74.6443 138.613 74.6443C139.01 74.6443 139.35 74.7321 139.632 74.9078C139.919 75.0797 140.138 75.3203 140.291 75.6297C140.444 75.9391 140.52 76.2905 140.52 76.6839C140.52 76.722 140.519 76.7602 140.515 76.7984C140.515 76.8328 140.513 76.8634 140.509 76.8901H137.071V76.3401H139.821C139.814 76.2332 139.787 76.1167 139.741 75.9906C139.699 75.8608 139.629 75.7405 139.529 75.6297C139.434 75.5151 139.312 75.4234 139.163 75.3547C139.017 75.2821 138.834 75.2458 138.613 75.2458C138.353 75.2458 138.128 75.3127 137.937 75.4464C137.746 75.58 137.599 75.7615 137.495 75.9906C137.396 76.2198 137.346 76.4795 137.346 76.7698C137.346 77.1097 137.411 77.3924 137.541 77.6177C137.671 77.8392 137.839 78.0054 138.045 78.1161C138.252 78.2269 138.467 78.2823 138.693 78.2823C138.983 78.2823 139.224 78.2135 139.415 78.076C139.606 77.9347 139.758 77.7628 139.873 77.5604L140.434 77.8354C140.278 78.1372 140.054 78.3873 139.764 78.5859C139.474 78.7845 139.109 78.8839 138.67 78.8839ZM141.297 78.7578V74.7703H141.933V75.3547H141.961C142.064 75.1637 142.234 74.9976 142.471 74.8562C142.712 74.7149 142.972 74.6443 143.25 74.6443C143.743 74.6443 144.112 74.7875 144.356 75.074C144.604 75.3566 144.728 75.7328 144.728 76.2026V78.7578H144.064V76.3C144.064 75.9142 143.97 75.6431 143.783 75.4865C143.6 75.326 143.363 75.2458 143.073 75.2458C142.855 75.2458 142.662 75.3069 142.494 75.4292C142.326 75.5514 142.194 75.7099 142.099 75.9047C142.007 76.0957 141.961 76.2981 141.961 76.512V78.7578H141.297ZM145.747 78.7578V74.7703H146.412V78.7578H145.747ZM146.074 74.037C145.944 74.037 145.831 73.9892 145.735 73.8937C145.644 73.7983 145.598 73.6856 145.598 73.5557C145.598 73.422 145.644 73.3094 145.735 73.2177C145.831 73.126 145.944 73.0802 146.074 73.0802C146.211 73.0802 146.326 73.126 146.417 73.2177C146.509 73.3094 146.555 73.422 146.555 73.5557C146.555 73.6856 146.509 73.7983 146.417 73.8937C146.326 73.9892 146.211 74.037 146.074 74.037ZM149.188 78.8839C148.802 78.8839 148.459 78.7922 148.157 78.6089C147.859 78.4255 147.624 78.1753 147.452 77.8583C147.284 77.5413 147.2 77.1785 147.2 76.7698C147.2 76.3917 147.279 76.0403 147.435 75.7156C147.596 75.391 147.821 75.1312 148.111 74.9365C148.401 74.7417 148.741 74.6443 149.131 74.6443C149.528 74.6443 149.868 74.7321 150.151 74.9078C150.437 75.0797 150.657 75.3203 150.81 75.6297C150.962 75.9391 151.039 76.2905 151.039 76.6839C151.039 76.722 151.037 76.7602 151.033 76.7984C151.033 76.8328 151.031 76.8634 151.027 76.8901H147.59V76.3401H150.34C150.332 76.2332 150.305 76.1167 150.26 75.9906C150.218 75.8608 150.147 75.7405 150.048 75.6297C149.952 75.5151 149.83 75.4234 149.681 75.3547C149.536 75.2821 149.352 75.2458 149.131 75.2458C148.871 75.2458 148.646 75.3127 148.455 75.4464C148.264 75.58 148.117 75.7615 148.014 75.9906C147.914 76.2198 147.865 76.4795 147.865 76.7698C147.865 77.1097 147.93 77.3924 148.06 77.6177C148.189 77.8392 148.358 78.0054 148.564 78.1161C148.77 78.2269 148.986 78.2823 149.211 78.2823C149.501 78.2823 149.742 78.2135 149.933 78.076C150.124 77.9347 150.277 77.7628 150.391 77.5604L150.953 77.8354C150.796 78.1372 150.573 78.3873 150.283 78.5859C149.992 78.7845 149.627 78.8839 149.188 78.8839ZM151.815 78.7578V74.7703H152.451V75.412H152.48C152.533 75.2592 152.621 75.1274 152.743 75.0167C152.865 74.9021 153.005 74.8123 153.161 74.7474C153.322 74.6825 153.48 74.65 153.637 74.65C153.755 74.65 153.849 74.6576 153.918 74.6729C153.986 74.6844 154.049 74.7035 154.107 74.7302V75.4521C154.023 75.4101 153.933 75.3795 153.837 75.3604C153.742 75.3375 153.645 75.326 153.545 75.326C153.35 75.326 153.173 75.3814 153.012 75.4922C152.852 75.5991 152.722 75.7443 152.623 75.9276C152.527 76.1109 152.48 76.3115 152.48 76.5292V78.7578H151.815ZM154.811 78.7578V74.7703H155.475V78.7578H154.811ZM154.862 73.9568L155.269 73H155.997L155.441 73.9568H154.862ZM157.748 78.8839C157.454 78.8839 157.194 78.8266 156.969 78.712C156.743 78.5974 156.566 78.4408 156.436 78.2422C156.31 78.0398 156.247 77.8106 156.247 77.5547C156.247 77.2606 156.323 77.0142 156.476 76.8156C156.629 76.6132 156.831 76.4623 157.083 76.363C157.339 76.2599 157.622 76.2083 157.931 76.2083C158.107 76.2083 158.269 76.2236 158.418 76.2542C158.571 76.2809 158.703 76.3134 158.813 76.3516C158.928 76.3898 159.014 76.428 159.071 76.4661V76.2255C159.071 75.9238 158.964 75.6851 158.75 75.5094C158.537 75.3299 158.277 75.2401 157.971 75.2401C157.75 75.2401 157.544 75.2878 157.353 75.3833C157.165 75.4788 157.016 75.6125 156.906 75.7844L156.407 75.412C156.51 75.2554 156.64 75.1198 156.797 75.0052C156.953 74.8906 157.131 74.8028 157.33 74.7417C157.532 74.6767 157.746 74.6443 157.971 74.6443C158.514 74.6443 158.938 74.7875 159.243 75.074C159.553 75.3604 159.707 75.7462 159.707 76.2312V78.7578H159.071V78.1849H159.043C158.974 78.2995 158.876 78.4102 158.75 78.5172C158.624 78.6241 158.477 78.712 158.309 78.7807C158.141 78.8495 157.954 78.8839 157.748 78.8839V78.8839ZM157.811 78.2938C158.04 78.2938 158.25 78.2365 158.441 78.1219C158.632 78.0073 158.785 77.8545 158.899 77.6635C159.014 77.4688 159.071 77.2568 159.071 77.0276C158.953 76.9436 158.804 76.8767 158.624 76.8271C158.445 76.7736 158.248 76.7469 158.034 76.7469C157.652 76.7469 157.372 76.8252 157.192 76.9818C157.016 77.1384 156.929 77.3312 156.929 77.5604C156.929 77.7781 157.013 77.9557 157.181 78.0932C157.349 78.2269 157.559 78.2938 157.811 78.2938Z" fill="#676C72"/>
</g>
<defs>
<clipPath id="clip0_0_1">
<rect width="200" height="65.2439" fill="white" transform="translate(0 25)"/>
</clipPath>
</defs>
</svg>
